M48
; DRILL file {KiCad 9.0.1} date 2025-07-10T19:48:20+1000
; FORMAT={-:-/ absolute / metric / decimal}
; #@! TF.CreationDate,2025-07-10T19:48:20+10:00
; #@! TF.GenerationSoftware,Kicad,Pcbnew,9.0.1
; #@! TF.FileFunction,Plated,1,4,PTH
FMAT,2
METRIC
; #@! TA.AperFunction,Plated,PTH,ComponentDrill
T1C0.200
; #@! TA.AperFunction,Plated,PTH,ViaDrill
T2C0.300
; #@! TA.AperFunction,Plated,PTH,ComponentDrill
T3C0.600
; #@! TA.AperFunction,Plated,PTH,ComponentDrill
T4C0.800
%
G90
G05
T1
X130.6Y-80.41
X130.6Y-81.81
X131.3Y-79.71
X131.3Y-81.11
X131.3Y-82.51
X132.0Y-80.41
X132.0Y-81.81
X132.7Y-79.71
X132.7Y-81.11
X132.7Y-82.51
X133.4Y-80.41
X133.4Y-81.81
T2
X107.2Y-75.3
X107.2Y-76.3
X108.2Y-75.3
X108.2Y-76.3
X111.178Y-86.666
X111.178Y-87.466
X111.178Y-92.366
X111.178Y-93.166
X112.5Y-81.0
X114.0Y-73.5
X114.0Y-75.8
X114.425Y-93.5
X116.5Y-83.037
X116.5Y-86.0
X116.5Y-93.5
X116.637Y-91.0
X117.0Y-72.962
X117.0Y-75.037
X118.537Y-78.0
X118.964Y-91.112
X119.5Y-72.85
X119.5Y-74.925
X119.5Y-85.075
X119.66Y-87.62
X122.5Y-72.85
X122.5Y-74.925
X122.5Y-83.037
X124.75Y-73.39
X124.75Y-74.66
X124.75Y-77.2
X124.75Y-78.47
X124.75Y-82.28
X124.75Y-83.55
X124.75Y-84.82
X124.75Y-86.09
X124.75Y-87.36
X142.25Y-73.39
X142.25Y-88.63
X146.5Y-96.575
T4
X113.87Y-97.54
X115.87Y-97.54
X117.87Y-97.54
X119.87Y-97.54
X121.87Y-97.54
X123.87Y-97.54
X125.87Y-97.54
X127.87Y-97.54
X129.87Y-97.54
X131.87Y-97.54
X133.87Y-97.54
X137.0Y-97.5
X139.0Y-97.5
X141.0Y-97.5
X143.0Y-97.5
X150.0Y-73.5
X150.0Y-75.5
X150.0Y-77.5
X150.0Y-79.5
X150.0Y-82.5
X150.0Y-84.5
X150.0Y-86.5
X150.0Y-88.5
X150.0Y-91.5
X150.0Y-93.5
X150.0Y-95.5
X150.0Y-97.5
T3
G00X106.383Y-85.596
M15
G01X105.783Y-85.596
M16
G05
G00X106.383Y-94.236
M15
G01X105.783Y-94.236
M16
G05
G00X110.813Y-85.596
M15
G01X109.713Y-85.596
M16
G05
G00X110.813Y-94.236
M15
G01X109.713Y-94.236
M16
G05
M30
