%TF.GenerationSoftware,KiCad,Pcbnew,9.0.1*%
%TF.CreationDate,2025-07-10T19:48:23+10:00*%
%TF.ProjectId,esp-32-s3-wroom-1,6573702d-3332-42d7-9333-2d77726f6f6d,rev?*%
%TF.SameCoordinates,Original*%
%TF.FileFunction,Copper,L1,Top*%
%TF.FilePolarity,Positive*%
%FSLAX46Y46*%
G04 Gerber Fmt 4.6, Leading zero omitted, Abs format (unit mm)*
G04 Created by KiCad (PCBNEW 9.0.1) date 2025-07-10 19:48:23*
%MOMM*%
%LPD*%
G01*
G04 APERTURE LIST*
G04 Aperture macros list*
%AMRoundRect*
0 Rectangle with rounded corners*
0 $1 Rounding radius*
0 $2 $3 $4 $5 $6 $7 $8 $9 X,Y pos of 4 corners*
0 Add a 4 corners polygon primitive as box body*
4,1,4,$2,$3,$4,$5,$6,$7,$8,$9,$2,$3,0*
0 Add four circle primitives for the rounded corners*
1,1,$1+$1,$2,$3*
1,1,$1+$1,$4,$5*
1,1,$1+$1,$6,$7*
1,1,$1+$1,$8,$9*
0 Add four rect primitives between the rounded corners*
20,1,$1+$1,$2,$3,$4,$5,0*
20,1,$1+$1,$4,$5,$6,$7,0*
20,1,$1+$1,$6,$7,$8,$9,0*
20,1,$1+$1,$8,$9,$2,$3,0*%
G04 Aperture macros list end*
%TA.AperFunction,HeatsinkPad*%
%ADD10O,1.600000X1.000000*%
%TD*%
%TA.AperFunction,HeatsinkPad*%
%ADD11O,2.100000X1.000000*%
%TD*%
%TA.AperFunction,SMDPad,CuDef*%
%ADD12R,1.450000X0.600000*%
%TD*%
%TA.AperFunction,SMDPad,CuDef*%
%ADD13R,1.450000X0.300000*%
%TD*%
%TA.AperFunction,HeatsinkPad*%
%ADD14C,0.600000*%
%TD*%
%TA.AperFunction,HeatsinkPad*%
%ADD15R,3.900000X3.900000*%
%TD*%
%TA.AperFunction,SMDPad,CuDef*%
%ADD16R,1.500000X0.900000*%
%TD*%
%TA.AperFunction,SMDPad,CuDef*%
%ADD17R,0.900000X1.500000*%
%TD*%
%TA.AperFunction,SMDPad,CuDef*%
%ADD18RoundRect,0.250000X-0.475000X0.337500X-0.475000X-0.337500X0.475000X-0.337500X0.475000X0.337500X0*%
%TD*%
%TA.AperFunction,ComponentPad*%
%ADD19R,1.350000X1.350000*%
%TD*%
%TA.AperFunction,ComponentPad*%
%ADD20C,1.350000*%
%TD*%
%TA.AperFunction,SMDPad,CuDef*%
%ADD21R,1.040000X0.460000*%
%TD*%
%TA.AperFunction,SMDPad,CuDef*%
%ADD22RoundRect,0.250000X0.337500X0.475000X-0.337500X0.475000X-0.337500X-0.475000X0.337500X-0.475000X0*%
%TD*%
%TA.AperFunction,SMDPad,CuDef*%
%ADD23RoundRect,0.250000X0.350000X0.450000X-0.350000X0.450000X-0.350000X-0.450000X0.350000X-0.450000X0*%
%TD*%
%TA.AperFunction,SMDPad,CuDef*%
%ADD24R,1.800000X1.350000*%
%TD*%
%TA.AperFunction,SMDPad,CuDef*%
%ADD25R,1.150000X1.150000*%
%TD*%
%TA.AperFunction,SMDPad,CuDef*%
%ADD26RoundRect,0.250000X-0.350000X-0.450000X0.350000X-0.450000X0.350000X0.450000X-0.350000X0.450000X0*%
%TD*%
%TA.AperFunction,SMDPad,CuDef*%
%ADD27RoundRect,0.375000X0.625000X0.375000X-0.625000X0.375000X-0.625000X-0.375000X0.625000X-0.375000X0*%
%TD*%
%TA.AperFunction,SMDPad,CuDef*%
%ADD28RoundRect,0.500000X0.500000X1.400000X-0.500000X1.400000X-0.500000X-1.400000X0.500000X-1.400000X0*%
%TD*%
%TA.AperFunction,SMDPad,CuDef*%
%ADD29RoundRect,0.093750X-0.093750X0.156250X-0.093750X-0.156250X0.093750X-0.156250X0.093750X0.156250X0*%
%TD*%
%TA.AperFunction,SMDPad,CuDef*%
%ADD30RoundRect,0.075000X-0.075000X0.250000X-0.075000X-0.250000X0.075000X-0.250000X0.075000X0.250000X0*%
%TD*%
%TA.AperFunction,ViaPad*%
%ADD31C,0.600000*%
%TD*%
%TA.AperFunction,Conductor*%
%ADD32C,0.200000*%
%TD*%
%TA.AperFunction,Conductor*%
%ADD33C,0.500000*%
%TD*%
%TA.AperFunction,Conductor*%
%ADD34C,0.250000*%
%TD*%
G04 APERTURE END LIST*
D10*
%TO.P,J1,S1,SHIELD*%
%TO.N,GND*%
X106082857Y-94236371D03*
D11*
X110262857Y-94236371D03*
D10*
X106082857Y-85596371D03*
D11*
X110262857Y-85596371D03*
D12*
%TO.P,J1,B12,GND*%
X111177857Y-86666371D03*
%TO.P,J1,B9,VBUS*%
%TO.N,/VBUS*%
X111177857Y-87466371D03*
D13*
%TO.P,J1,B8,SBU2*%
%TO.N,unconnected-(J1-SBU2-PadB8)*%
X111177857Y-88166371D03*
%TO.P,J1,B7,D-*%
%TO.N,/D_N*%
X111177857Y-89166371D03*
%TO.P,J1,B6,D+*%
%TO.N,/D_P*%
X111177857Y-90666371D03*
%TO.P,J1,B5,CC2*%
%TO.N,Net-(J1-CC2)*%
X111177857Y-91666371D03*
D12*
%TO.P,J1,B4,VBUS*%
%TO.N,/VBUS*%
X111177857Y-92366371D03*
%TO.P,J1,B1,GND*%
%TO.N,GND*%
X111177857Y-93166371D03*
%TO.P,J1,A12,GND*%
X111177857Y-93166371D03*
%TO.P,J1,A9,VBUS*%
%TO.N,/VBUS*%
X111177857Y-92366371D03*
D13*
%TO.P,J1,A8,SBU1*%
%TO.N,unconnected-(J1-SBU1-PadA8)*%
X111177857Y-91166371D03*
%TO.P,J1,A7,D-*%
%TO.N,/D_N*%
X111177857Y-90166371D03*
%TO.P,J1,A6,D+*%
%TO.N,/D_P*%
X111177857Y-89666371D03*
%TO.P,J1,A5,CC1*%
%TO.N,Net-(J1-CC1)*%
X111177857Y-88666371D03*
D12*
%TO.P,J1,A4,VBUS*%
%TO.N,/VBUS*%
X111177857Y-87466371D03*
%TO.P,J1,A1,GND*%
%TO.N,GND*%
X111177857Y-86666371D03*
%TD*%
D14*
%TO.P,U1,41,GND*%
%TO.N,GND*%
X133400000Y-81810000D03*
X133400000Y-80410000D03*
X132700000Y-82510000D03*
X132700000Y-81110000D03*
X132700000Y-79710000D03*
X132000000Y-81810000D03*
D15*
X132000000Y-81110000D03*
D14*
X132000000Y-80410000D03*
X131300000Y-82510000D03*
X131300000Y-81110000D03*
X131300000Y-79710000D03*
X130600000Y-81810000D03*
X130600000Y-80410000D03*
D16*
%TO.P,U1,40,GND*%
X142250000Y-73390000D03*
%TO.P,U1,39,IO1*%
%TO.N,/IO1*%
X142250000Y-74660000D03*
%TO.P,U1,38,IO2*%
%TO.N,/IO2*%
X142250000Y-75930000D03*
%TO.P,U1,37,TXD0*%
%TO.N,unconnected-(U1-TXD0-Pad37)*%
X142250000Y-77200000D03*
%TO.P,U1,36,RXD0*%
%TO.N,unconnected-(U1-RXD0-Pad36)*%
X142250000Y-78470000D03*
%TO.P,U1,35,IO42*%
%TO.N,/IO42*%
X142250000Y-79740000D03*
%TO.P,U1,34,IO41*%
%TO.N,/IO41*%
X142250000Y-81010000D03*
%TO.P,U1,33,IO40*%
%TO.N,/IO40*%
X142250000Y-82280000D03*
%TO.P,U1,32,IO39*%
%TO.N,/IO39*%
X142250000Y-83550000D03*
%TO.P,U1,31,IO38*%
%TO.N,/IO38*%
X142250000Y-84820000D03*
%TO.P,U1,30,IO37*%
%TO.N,/IO37*%
X142250000Y-86090000D03*
%TO.P,U1,29,IO36*%
%TO.N,/IO36*%
X142250000Y-87360000D03*
%TO.P,U1,28,IO35*%
%TO.N,/IO35*%
X142250000Y-88630000D03*
%TO.P,U1,27,IO0*%
%TO.N,/BOOT*%
X142250000Y-89900000D03*
D17*
%TO.P,U1,26,IO45*%
%TO.N,/IO45*%
X140485000Y-91150000D03*
%TO.P,U1,25,IO48*%
%TO.N,/IO48*%
X139215000Y-91150000D03*
%TO.P,U1,24,IO47*%
%TO.N,unconnected-(U1-IO47-Pad24)*%
X137945000Y-91150000D03*
%TO.P,U1,23,IO21*%
%TO.N,unconnected-(U1-IO21-Pad23)*%
X136675000Y-91150000D03*
%TO.P,U1,22,IO14*%
%TO.N,/IO14*%
X135405000Y-91150000D03*
%TO.P,U1,21,IO13*%
%TO.N,/IO13*%
X134135000Y-91150000D03*
%TO.P,U1,20,IO12*%
%TO.N,/IO12*%
X132865000Y-91150000D03*
%TO.P,U1,19,IO11*%
%TO.N,/IO11*%
X131595000Y-91150000D03*
%TO.P,U1,18,IO10*%
%TO.N,/IO10*%
X130325000Y-91150000D03*
%TO.P,U1,17,IO9*%
%TO.N,/IO9*%
X129055000Y-91150000D03*
%TO.P,U1,16,IO46*%
%TO.N,/IO46*%
X127785000Y-91150000D03*
%TO.P,U1,15,IO3*%
%TO.N,/IO3*%
X126515000Y-91150000D03*
D16*
%TO.P,U1,14,USB_D+*%
%TO.N,/D+*%
X124750000Y-89900000D03*
%TO.P,U1,13,USB_D-*%
%TO.N,/D-*%
X124750000Y-88630000D03*
%TO.P,U1,12,IO8*%
%TO.N,/IO8*%
X124750000Y-87360000D03*
%TO.P,U1,11,IO18*%
%TO.N,/SDA*%
X124750000Y-86090000D03*
%TO.P,U1,10,IO17*%
%TO.N,/SCL*%
X124750000Y-84820000D03*
%TO.P,U1,9,IO16*%
%TO.N,/IO16*%
X124750000Y-83550000D03*
%TO.P,U1,8,IO15*%
%TO.N,/IO15*%
X124750000Y-82280000D03*
%TO.P,U1,7,IO7*%
%TO.N,/IO7*%
X124750000Y-81010000D03*
%TO.P,U1,6,IO6*%
%TO.N,/IO6*%
X124750000Y-79740000D03*
%TO.P,U1,5,IO5*%
%TO.N,/IO5*%
X124750000Y-78470000D03*
%TO.P,U1,4,IO4*%
%TO.N,/IO4*%
X124750000Y-77200000D03*
%TO.P,U1,3,EN*%
%TO.N,/EN*%
X124750000Y-75930000D03*
%TO.P,U1,2,3V3*%
%TO.N,+3.3V*%
X124750000Y-74660000D03*
%TO.P,U1,1,GND*%
%TO.N,GND*%
X124750000Y-73390000D03*
%TD*%
D18*
%TO.P,C1,2*%
%TO.N,+3.3V*%
X119500000Y-74925500D03*
%TO.P,C1,1*%
%TO.N,GND*%
X119500000Y-72850500D03*
%TD*%
%TO.P,C3,2*%
%TO.N,+3.3V*%
X122500000Y-74925500D03*
%TO.P,C3,1*%
%TO.N,GND*%
X122500000Y-72850500D03*
%TD*%
D19*
%TO.P,J2,1,Pin_1*%
%TO.N,+3.3V*%
X143000000Y-97500000D03*
D20*
%TO.P,J2,2,Pin_2*%
%TO.N,GND*%
X141000000Y-97500000D03*
%TO.P,J2,3,Pin_3*%
%TO.N,/SCL*%
X139000000Y-97500000D03*
%TO.P,J2,4,Pin_4*%
%TO.N,/SDA*%
X137000000Y-97500000D03*
%TD*%
D21*
%TO.P,D1,A*%
%TO.N,/VBUS*%
X112887500Y-83130000D03*
%TO.P,D1,C*%
%TO.N,+5V*%
X110507500Y-83130000D03*
%TD*%
D22*
%TO.P,C2,1*%
%TO.N,GND*%
X118537500Y-78000000D03*
%TO.P,C2,2*%
%TO.N,+5V*%
X116462500Y-78000000D03*
%TD*%
D18*
%TO.P,C5,1*%
%TO.N,/EN*%
X122500000Y-80962500D03*
%TO.P,C5,2*%
%TO.N,GND*%
X122500000Y-83037500D03*
%TD*%
D19*
%TO.P,J7,1,Pin_1*%
%TO.N,/IO14*%
X133870000Y-97540000D03*
D20*
%TO.P,J7,2,Pin_2*%
%TO.N,/IO13*%
X131870000Y-97540000D03*
%TO.P,J7,3,Pin_3*%
%TO.N,/IO12*%
X129870000Y-97540000D03*
%TO.P,J7,4,Pin_4*%
%TO.N,/IO11*%
X127870000Y-97540000D03*
%TO.P,J7,5,Pin_5*%
%TO.N,/IO10*%
X125870000Y-97540000D03*
%TO.P,J7,6,Pin_6*%
%TO.N,/IO9*%
X123870000Y-97540000D03*
%TO.P,J7,7,Pin_7*%
%TO.N,/IO46*%
X121870000Y-97540000D03*
%TO.P,J7,8,Pin_8*%
%TO.N,/IO3*%
X119870000Y-97540000D03*
%TO.P,J7,9,Pin_9*%
%TO.N,/IO8*%
X117870000Y-97540000D03*
%TO.P,J7,10,Pin_10*%
%TO.N,/IO16*%
X115870000Y-97540000D03*
%TO.P,J7,11,Pin_11*%
%TO.N,/IO15*%
X113870000Y-97540000D03*
%TD*%
D23*
%TO.P,R5,1*%
%TO.N,/EN*%
X114500000Y-81000000D03*
%TO.P,R5,2*%
%TO.N,+3.3V*%
X112500000Y-81000000D03*
%TD*%
D24*
%TO.P,S1,1*%
%TO.N,/EN*%
X119500000Y-80925000D03*
%TO.P,S1,2*%
%TO.N,GND*%
X119500000Y-85075000D03*
%TD*%
%TO.P,S2,1*%
%TO.N,Net-(R2-Pad2)*%
X146500000Y-92425000D03*
%TO.P,S2,2*%
%TO.N,GND*%
X146500000Y-96575000D03*
%TD*%
D19*
%TO.P,J3,1,Pin_1*%
%TO.N,/IO48*%
X150000000Y-97500000D03*
D20*
%TO.P,J3,2,Pin_2*%
%TO.N,/IO45*%
X150000000Y-95500000D03*
%TO.P,J3,3,Pin_3*%
%TO.N,/IO35*%
X150000000Y-93500000D03*
%TO.P,J3,4,Pin_4*%
%TO.N,/IO36*%
X150000000Y-91500000D03*
%TD*%
D18*
%TO.P,C4,1*%
%TO.N,GND*%
X117000000Y-72925000D03*
%TO.P,C4,2*%
%TO.N,+3.3V*%
X117000000Y-75000000D03*
%TD*%
D22*
%TO.P,C6,1*%
%TO.N,GND*%
X116500000Y-93500000D03*
%TO.P,C6,2*%
%TO.N,/VBUS*%
X114425000Y-93500000D03*
%TD*%
D25*
%TO.P,R3,1*%
%TO.N,Net-(J1-CC2)*%
X114287500Y-91000000D03*
%TO.P,R3,2*%
%TO.N,GND*%
X116637500Y-91000000D03*
%TD*%
D26*
%TO.P,R2,1*%
%TO.N,/BOOT*%
X144500000Y-90500000D03*
%TO.P,R2,2*%
%TO.N,Net-(R2-Pad2)*%
X146500000Y-90500000D03*
%TD*%
D19*
%TO.P,J4,1,Pin_1*%
%TO.N,/IO37*%
X150000000Y-88500000D03*
D20*
%TO.P,J4,2,Pin_2*%
%TO.N,/IO38*%
X150000000Y-86500000D03*
%TO.P,J4,3,Pin_3*%
%TO.N,/IO39*%
X150000000Y-84500000D03*
%TO.P,J4,4,Pin_4*%
%TO.N,/IO40*%
X150000000Y-82500000D03*
%TD*%
D19*
%TO.P,J5,1,Pin_1*%
%TO.N,/IO41*%
X150000000Y-79500000D03*
D20*
%TO.P,J5,2,Pin_2*%
%TO.N,/IO42*%
X150000000Y-77500000D03*
%TO.P,J5,3,Pin_3*%
%TO.N,/IO5*%
X150000000Y-75500000D03*
%TO.P,J5,4,Pin_4*%
%TO.N,/IO4*%
X150000000Y-73500000D03*
%TD*%
D27*
%TO.P,U3,1,VI*%
%TO.N,+5V*%
X114000000Y-78100000D03*
%TO.P,U3,2,GND*%
%TO.N,GND*%
X114000000Y-75800000D03*
D28*
X107700000Y-75800000D03*
D27*
%TO.P,U3,3,VO*%
%TO.N,+3.3V*%
X114000000Y-73500000D03*
%TD*%
D18*
%TO.P,C7,1*%
%TO.N,/EN*%
X116500000Y-80962500D03*
%TO.P,C7,2*%
%TO.N,GND*%
X116500000Y-83037500D03*
%TD*%
D26*
%TO.P,R1,1*%
%TO.N,Net-(J1-CC1)*%
X114500000Y-86000000D03*
%TO.P,R1,2*%
%TO.N,GND*%
X116500000Y-86000000D03*
%TD*%
D29*
%TO.P,U2,1,I/O1*%
%TO.N,/D-*%
X120197500Y-88665000D03*
D30*
%TO.P,U2,2,GND*%
%TO.N,GND*%
X119660000Y-88590000D03*
D29*
%TO.P,U2,3,I/O2*%
%TO.N,/D_N*%
X119122500Y-88665000D03*
%TO.P,U2,4,I/O2*%
%TO.N,/D_P*%
X119122500Y-90365000D03*
D30*
%TO.P,U2,5,VBUS*%
%TO.N,/VBUS*%
X119660000Y-90440000D03*
D29*
%TO.P,U2,6,I/O1*%
%TO.N,/D+*%
X120197500Y-90365000D03*
%TD*%
D31*
%TO.N,GND*%
X118537500Y-78000000D03*
X119660000Y-87620000D03*
X146500000Y-96575000D03*
%TO.N,/SCL*%
X124750000Y-84820000D03*
%TO.N,/SDA*%
X124750000Y-86090000D03*
%TO.N,+3.3V*%
X112500000Y-81000000D03*
%TO.N,GND*%
X116500000Y-93500000D03*
%TO.N,/VBUS*%
X118963976Y-91111906D03*
%TO.N,GND*%
X116637500Y-91000000D03*
%TO.N,/VBUS*%
X114425000Y-93500000D03*
%TO.N,GND*%
X111177857Y-93166371D03*
%TO.N,/VBUS*%
X111177857Y-92366371D03*
%TO.N,GND*%
X111177857Y-86666371D03*
%TO.N,/VBUS*%
X111177857Y-87466371D03*
%TO.N,GND*%
X122500000Y-72850500D03*
X119500000Y-72850500D03*
X117000000Y-72962500D03*
%TO.N,/IO35*%
X142250000Y-88630000D03*
%TO.N,/IO5*%
X124750000Y-78470000D03*
%TO.N,/IO4*%
X124750000Y-77200000D03*
%TO.N,/IO8*%
X124750000Y-87360000D03*
%TO.N,/IO15*%
X124750000Y-82280000D03*
%TO.N,/IO16*%
X124750000Y-83550000D03*
%TO.N,GND*%
X142250000Y-73390000D03*
X122500000Y-83037500D03*
X116500000Y-86000000D03*
X116500000Y-83037500D03*
X119500000Y-85075000D03*
X124750000Y-73390000D03*
%TO.N,+3.3V*%
X124750000Y-74660000D03*
X122500000Y-74925500D03*
X119500000Y-74925500D03*
X117000000Y-75037500D03*
%TO.N,GND*%
X114000000Y-75800000D03*
X108200000Y-76300000D03*
X107200000Y-76300000D03*
X108200000Y-75300000D03*
X107200000Y-75300000D03*
%TO.N,+3.3V*%
X114000000Y-73500000D03*
%TD*%
D32*
%TO.N,GND*%
X119660000Y-88590000D02*
X119660000Y-87620000D01*
D33*
%TO.N,+5V*%
X116362500Y-78100000D02*
X116462500Y-78000000D01*
X114000000Y-78100000D02*
X116362500Y-78100000D01*
D32*
%TO.N,/EN*%
X119037500Y-80962500D02*
X116500000Y-80962500D01*
X122500000Y-80962500D02*
X121537500Y-80962500D01*
X124750000Y-75930000D02*
X123800000Y-75930000D01*
X121537500Y-80962500D02*
X121500000Y-80925000D01*
X121500000Y-80925000D02*
X119500000Y-80925000D01*
X122500000Y-77230000D02*
X122500000Y-80962500D01*
X116962500Y-81000000D02*
X117000000Y-80962500D01*
X119500000Y-80925000D02*
X119075000Y-80925000D01*
X119075000Y-80925000D02*
X119037500Y-80962500D01*
X116500000Y-80962500D02*
X114537500Y-80962500D01*
X114537500Y-80962500D02*
X114500000Y-81000000D01*
X123800000Y-75930000D02*
X122500000Y-77230000D01*
X119962500Y-80962500D02*
X120000000Y-80925000D01*
%TO.N,/D+*%
X121197501Y-89740000D02*
X123474998Y-89740000D01*
X123634998Y-89900000D02*
X124750000Y-89900000D01*
X120197500Y-90365000D02*
X120572501Y-90365000D01*
X123474998Y-89740000D02*
X123634998Y-89900000D01*
X124509099Y-89659099D02*
X124750000Y-89900000D01*
X120572501Y-90365000D02*
X121197501Y-89740000D01*
%TO.N,/D-*%
X124134998Y-88630000D02*
X124750000Y-88630000D01*
X120572501Y-88665000D02*
X121197501Y-89290000D01*
X121197501Y-89290000D02*
X123474998Y-89290000D01*
X120197500Y-88665000D02*
X120572501Y-88665000D01*
X123474998Y-89290000D02*
X124134998Y-88630000D01*
D34*
%TO.N,Net-(J1-CC1)*%
X114500000Y-86700000D02*
X112533629Y-88666371D01*
X114500000Y-86000000D02*
X114500000Y-86700000D01*
X112533629Y-88666371D02*
X111177857Y-88666371D01*
%TO.N,Net-(J1-CC2)*%
X113621129Y-91666371D02*
X114287500Y-91000000D01*
X111177857Y-91666371D02*
X113621129Y-91666371D01*
D32*
%TO.N,/IO37*%
X150000000Y-88500000D02*
X147590000Y-86090000D01*
X147590000Y-86090000D02*
X142250000Y-86090000D01*
%TO.N,/IO38*%
X148320000Y-84820000D02*
X142250000Y-84820000D01*
X150000000Y-86500000D02*
X148320000Y-84820000D01*
%TO.N,/IO36*%
X150000000Y-91500000D02*
X145860000Y-87360000D01*
X145860000Y-87360000D02*
X142250000Y-87360000D01*
%TO.N,/IO40*%
X142470000Y-82500000D02*
X142250000Y-82280000D01*
X150000000Y-82500000D02*
X142470000Y-82500000D01*
%TO.N,/IO42*%
X142760000Y-79740000D02*
X142250000Y-79740000D01*
X150000000Y-77500000D02*
X145000000Y-77500000D01*
X145000000Y-77500000D02*
X142760000Y-79740000D01*
D34*
X142510000Y-80000000D02*
X142250000Y-79740000D01*
D32*
%TO.N,/IO41*%
X150000000Y-79500000D02*
X145000000Y-79500000D01*
X143490000Y-81010000D02*
X142250000Y-81010000D01*
X145000000Y-79500000D02*
X143490000Y-81010000D01*
%TO.N,/IO39*%
X150000000Y-84500000D02*
X149050000Y-83550000D01*
X149050000Y-83550000D02*
X142250000Y-83550000D01*
D34*
%TO.N,Net-(R2-Pad2)*%
X146575000Y-90575000D02*
X146500000Y-90500000D01*
D32*
X146500000Y-90500000D02*
X146500000Y-92425000D01*
D34*
%TO.N,/BOOT*%
X142250000Y-89900000D02*
X143900000Y-89900000D01*
X143900000Y-89900000D02*
X144500000Y-90500000D01*
D32*
%TO.N,/IO45*%
X148500000Y-94000000D02*
X143335000Y-94000000D01*
X150000000Y-95500000D02*
X148500000Y-94000000D01*
X143335000Y-94000000D02*
X140485000Y-91150000D01*
%TO.N,/D_P*%
X111177857Y-89666371D02*
X112265358Y-89666371D01*
X118821371Y-89641371D02*
X119122500Y-89942500D01*
X112265358Y-89666371D02*
X112290358Y-89641371D01*
X119122500Y-89942500D02*
X119122500Y-90365000D01*
X112154857Y-90666371D02*
X112265358Y-90555870D01*
X112265358Y-90555870D02*
X112265358Y-89666371D01*
X111177857Y-90666371D02*
X112154857Y-90666371D01*
X112290358Y-89641371D02*
X118821371Y-89641371D01*
%TO.N,/D_N*%
X109940000Y-89905514D02*
X110200857Y-90166371D01*
X110200857Y-89166371D02*
X109940000Y-89427228D01*
X111177857Y-89166371D02*
X112265358Y-89166371D01*
X112290358Y-89191371D02*
X118818629Y-89191371D01*
X112265358Y-89166371D02*
X112290358Y-89191371D01*
X119122500Y-88887500D02*
X119122500Y-88665000D01*
X118818629Y-89191371D02*
X119122500Y-88887500D01*
X110200857Y-90166371D02*
X111177857Y-90166371D01*
X109940000Y-89427228D02*
X109940000Y-89905514D01*
X111177857Y-89166371D02*
X110200857Y-89166371D01*
%TO.N,/IO48*%
X142615000Y-95500000D02*
X139215000Y-92100000D01*
X150000000Y-97500000D02*
X148000000Y-95500000D01*
X139215000Y-92100000D02*
X139215000Y-91150000D01*
X148000000Y-95500000D02*
X142615000Y-95500000D01*
%TO.N,/IO9*%
X129055000Y-92355000D02*
X123870000Y-97540000D01*
X129055000Y-91150000D02*
X129055000Y-92355000D01*
%TO.N,/IO3*%
X126260000Y-91150000D02*
X119870000Y-97540000D01*
X126515000Y-91150000D02*
X126260000Y-91150000D01*
%TO.N,/IO12*%
X132865000Y-91150000D02*
X132865000Y-94545000D01*
X132865000Y-94545000D02*
X129870000Y-97540000D01*
D34*
%TO.N,/IO8*%
X124168000Y-87360000D02*
X124750000Y-87360000D01*
D32*
%TO.N,/IO10*%
X130325000Y-93085000D02*
X125870000Y-97540000D01*
X130325000Y-91150000D02*
X130325000Y-93085000D01*
%TO.N,/IO13*%
X134135000Y-95275000D02*
X131870000Y-97540000D01*
X134135000Y-95260000D02*
X134135000Y-95275000D01*
X134135000Y-91150000D02*
X134135000Y-95260000D01*
X134135000Y-95260000D02*
X134135000Y-95365000D01*
%TO.N,/IO14*%
X135405000Y-91150000D02*
X135405000Y-94565000D01*
X133870000Y-96100000D02*
X133870000Y-97540000D01*
X135405000Y-94565000D02*
X133870000Y-96100000D01*
%TO.N,/IO11*%
X131595000Y-93815000D02*
X127870000Y-97540000D01*
X131595000Y-91150000D02*
X131595000Y-93815000D01*
%TO.N,/IO46*%
X127785000Y-91150000D02*
X127785000Y-91715000D01*
X127785000Y-91625000D02*
X121870000Y-97540000D01*
X127785000Y-91150000D02*
X127785000Y-91625000D01*
D33*
%TO.N,+5V*%
X111900000Y-78100000D02*
X114000000Y-78100000D01*
X110507500Y-79492500D02*
X111900000Y-78100000D01*
X110507500Y-83130000D02*
X110507500Y-79492500D01*
D32*
%TO.N,/VBUS*%
X119660000Y-90440000D02*
X119660000Y-90764999D01*
X119660000Y-90764999D02*
X119313093Y-91111906D01*
X119313093Y-91111906D02*
X118963976Y-91111906D01*
D33*
X112887500Y-86883728D02*
X112887500Y-83130000D01*
X111177857Y-87466371D02*
X112304857Y-87466371D01*
X112304857Y-87466371D02*
X112887500Y-86883728D01*
%TO.N,+3.3V*%
X124484500Y-74925500D02*
X124750000Y-74660000D01*
X119425500Y-75000000D02*
X119500000Y-74925500D01*
%TD*%
M02*
