%TF.GenerationSoftware,KiCad,Pcbnew,9.0.1*%
%TF.CreationDate,2025-07-10T19:48:23+10:00*%
%TF.ProjectId,esp-32-s3-wroom-1,6573702d-3332-42d7-9333-2d77726f6f6d,rev?*%
%TF.SameCoordinates,Original*%
%TF.FileFunction,Legend,Top*%
%TF.FilePolarity,Positive*%
%FSLAX46Y46*%
G04 Gerber Fmt 4.6, Leading zero omitted, Abs format (unit mm)*
G04 Created by KiCad (PCBNEW 9.0.1) date 2025-07-10 19:48:23*
%MOMM*%
%LPD*%
G01*
G04 APERTURE LIST*
%ADD10C,0.150000*%
%ADD11C,0.120000*%
%ADD12C,0.127000*%
%ADD13C,0.200000*%
G04 APERTURE END LIST*
D10*
X112232676Y-90249704D02*
X112946961Y-90249704D01*
X112946961Y-90249704D02*
X113089818Y-90297323D01*
X113089818Y-90297323D02*
X113185057Y-90392561D01*
X113185057Y-90392561D02*
X113232676Y-90535418D01*
X113232676Y-90535418D02*
X113232676Y-90630656D01*
X113232676Y-89249704D02*
X113232676Y-89821132D01*
X113232676Y-89535418D02*
X112232676Y-89535418D01*
X112232676Y-89535418D02*
X112375533Y-89630656D01*
X112375533Y-89630656D02*
X112470771Y-89725894D01*
X112470771Y-89725894D02*
X112518390Y-89821132D01*
X122454819Y-90811904D02*
X123264342Y-90811904D01*
X123264342Y-90811904D02*
X123359580Y-90764285D01*
X123359580Y-90764285D02*
X123407200Y-90716666D01*
X123407200Y-90716666D02*
X123454819Y-90621428D01*
X123454819Y-90621428D02*
X123454819Y-90430952D01*
X123454819Y-90430952D02*
X123407200Y-90335714D01*
X123407200Y-90335714D02*
X123359580Y-90288095D01*
X123359580Y-90288095D02*
X123264342Y-90240476D01*
X123264342Y-90240476D02*
X122454819Y-90240476D01*
X123454819Y-89240476D02*
X123454819Y-89811904D01*
X123454819Y-89526190D02*
X122454819Y-89526190D01*
X122454819Y-89526190D02*
X122597676Y-89621428D01*
X122597676Y-89621428D02*
X122692914Y-89716666D01*
X122692914Y-89716666D02*
X122740533Y-89811904D01*
X121539580Y-74054666D02*
X121587200Y-74102285D01*
X121587200Y-74102285D02*
X121634819Y-74245142D01*
X121634819Y-74245142D02*
X121634819Y-74340380D01*
X121634819Y-74340380D02*
X121587200Y-74483237D01*
X121587200Y-74483237D02*
X121491961Y-74578475D01*
X121491961Y-74578475D02*
X121396723Y-74626094D01*
X121396723Y-74626094D02*
X121206247Y-74673713D01*
X121206247Y-74673713D02*
X121063390Y-74673713D01*
X121063390Y-74673713D02*
X120872914Y-74626094D01*
X120872914Y-74626094D02*
X120777676Y-74578475D01*
X120777676Y-74578475D02*
X120682438Y-74483237D01*
X120682438Y-74483237D02*
X120634819Y-74340380D01*
X120634819Y-74340380D02*
X120634819Y-74245142D01*
X120634819Y-74245142D02*
X120682438Y-74102285D01*
X120682438Y-74102285D02*
X120730057Y-74054666D01*
X121634819Y-73102285D02*
X121634819Y-73673713D01*
X121634819Y-73387999D02*
X120634819Y-73387999D01*
X120634819Y-73387999D02*
X120777676Y-73483237D01*
X120777676Y-73483237D02*
X120872914Y-73578475D01*
X120872914Y-73578475D02*
X120920533Y-73673713D01*
X124539580Y-74054666D02*
X124587200Y-74102285D01*
X124587200Y-74102285D02*
X124634819Y-74245142D01*
X124634819Y-74245142D02*
X124634819Y-74340380D01*
X124634819Y-74340380D02*
X124587200Y-74483237D01*
X124587200Y-74483237D02*
X124491961Y-74578475D01*
X124491961Y-74578475D02*
X124396723Y-74626094D01*
X124396723Y-74626094D02*
X124206247Y-74673713D01*
X124206247Y-74673713D02*
X124063390Y-74673713D01*
X124063390Y-74673713D02*
X123872914Y-74626094D01*
X123872914Y-74626094D02*
X123777676Y-74578475D01*
X123777676Y-74578475D02*
X123682438Y-74483237D01*
X123682438Y-74483237D02*
X123634819Y-74340380D01*
X123634819Y-74340380D02*
X123634819Y-74245142D01*
X123634819Y-74245142D02*
X123682438Y-74102285D01*
X123682438Y-74102285D02*
X123730057Y-74054666D01*
X123634819Y-73721332D02*
X123634819Y-73102285D01*
X123634819Y-73102285D02*
X124015771Y-73435618D01*
X124015771Y-73435618D02*
X124015771Y-73292761D01*
X124015771Y-73292761D02*
X124063390Y-73197523D01*
X124063390Y-73197523D02*
X124111009Y-73149904D01*
X124111009Y-73149904D02*
X124206247Y-73102285D01*
X124206247Y-73102285D02*
X124444342Y-73102285D01*
X124444342Y-73102285D02*
X124539580Y-73149904D01*
X124539580Y-73149904D02*
X124587200Y-73197523D01*
X124587200Y-73197523D02*
X124634819Y-73292761D01*
X124634819Y-73292761D02*
X124634819Y-73578475D01*
X124634819Y-73578475D02*
X124587200Y-73673713D01*
X124587200Y-73673713D02*
X124539580Y-73721332D01*
X139666666Y-94954819D02*
X139666666Y-95669104D01*
X139666666Y-95669104D02*
X139619047Y-95811961D01*
X139619047Y-95811961D02*
X139523809Y-95907200D01*
X139523809Y-95907200D02*
X139380952Y-95954819D01*
X139380952Y-95954819D02*
X139285714Y-95954819D01*
X140095238Y-95050057D02*
X140142857Y-95002438D01*
X140142857Y-95002438D02*
X140238095Y-94954819D01*
X140238095Y-94954819D02*
X140476190Y-94954819D01*
X140476190Y-94954819D02*
X140571428Y-95002438D01*
X140571428Y-95002438D02*
X140619047Y-95050057D01*
X140619047Y-95050057D02*
X140666666Y-95145295D01*
X140666666Y-95145295D02*
X140666666Y-95240533D01*
X140666666Y-95240533D02*
X140619047Y-95383390D01*
X140619047Y-95383390D02*
X140047619Y-95954819D01*
X140047619Y-95954819D02*
X140666666Y-95954819D01*
X111225118Y-81918276D02*
X111225118Y-81278276D01*
X111225118Y-81278276D02*
X111377499Y-81278276D01*
X111377499Y-81278276D02*
X111468928Y-81308752D01*
X111468928Y-81308752D02*
X111529880Y-81369704D01*
X111529880Y-81369704D02*
X111560357Y-81430657D01*
X111560357Y-81430657D02*
X111590833Y-81552561D01*
X111590833Y-81552561D02*
X111590833Y-81643990D01*
X111590833Y-81643990D02*
X111560357Y-81765895D01*
X111560357Y-81765895D02*
X111529880Y-81826847D01*
X111529880Y-81826847D02*
X111468928Y-81887800D01*
X111468928Y-81887800D02*
X111377499Y-81918276D01*
X111377499Y-81918276D02*
X111225118Y-81918276D01*
X112200357Y-81918276D02*
X111834642Y-81918276D01*
X112017499Y-81918276D02*
X112017499Y-81278276D01*
X112017499Y-81278276D02*
X111956547Y-81369704D01*
X111956547Y-81369704D02*
X111895595Y-81430657D01*
X111895595Y-81430657D02*
X111834642Y-81461133D01*
X117333333Y-80039580D02*
X117285714Y-80087200D01*
X117285714Y-80087200D02*
X117142857Y-80134819D01*
X117142857Y-80134819D02*
X117047619Y-80134819D01*
X117047619Y-80134819D02*
X116904762Y-80087200D01*
X116904762Y-80087200D02*
X116809524Y-79991961D01*
X116809524Y-79991961D02*
X116761905Y-79896723D01*
X116761905Y-79896723D02*
X116714286Y-79706247D01*
X116714286Y-79706247D02*
X116714286Y-79563390D01*
X116714286Y-79563390D02*
X116761905Y-79372914D01*
X116761905Y-79372914D02*
X116809524Y-79277676D01*
X116809524Y-79277676D02*
X116904762Y-79182438D01*
X116904762Y-79182438D02*
X117047619Y-79134819D01*
X117047619Y-79134819D02*
X117142857Y-79134819D01*
X117142857Y-79134819D02*
X117285714Y-79182438D01*
X117285714Y-79182438D02*
X117333333Y-79230057D01*
X117714286Y-79230057D02*
X117761905Y-79182438D01*
X117761905Y-79182438D02*
X117857143Y-79134819D01*
X117857143Y-79134819D02*
X118095238Y-79134819D01*
X118095238Y-79134819D02*
X118190476Y-79182438D01*
X118190476Y-79182438D02*
X118238095Y-79230057D01*
X118238095Y-79230057D02*
X118285714Y-79325295D01*
X118285714Y-79325295D02*
X118285714Y-79420533D01*
X118285714Y-79420533D02*
X118238095Y-79563390D01*
X118238095Y-79563390D02*
X117666667Y-80134819D01*
X117666667Y-80134819D02*
X118285714Y-80134819D01*
X124539580Y-82166666D02*
X124587200Y-82214285D01*
X124587200Y-82214285D02*
X124634819Y-82357142D01*
X124634819Y-82357142D02*
X124634819Y-82452380D01*
X124634819Y-82452380D02*
X124587200Y-82595237D01*
X124587200Y-82595237D02*
X124491961Y-82690475D01*
X124491961Y-82690475D02*
X124396723Y-82738094D01*
X124396723Y-82738094D02*
X124206247Y-82785713D01*
X124206247Y-82785713D02*
X124063390Y-82785713D01*
X124063390Y-82785713D02*
X123872914Y-82738094D01*
X123872914Y-82738094D02*
X123777676Y-82690475D01*
X123777676Y-82690475D02*
X123682438Y-82595237D01*
X123682438Y-82595237D02*
X123634819Y-82452380D01*
X123634819Y-82452380D02*
X123634819Y-82357142D01*
X123634819Y-82357142D02*
X123682438Y-82214285D01*
X123682438Y-82214285D02*
X123730057Y-82166666D01*
X123634819Y-81261904D02*
X123634819Y-81738094D01*
X123634819Y-81738094D02*
X124111009Y-81785713D01*
X124111009Y-81785713D02*
X124063390Y-81738094D01*
X124063390Y-81738094D02*
X124015771Y-81642856D01*
X124015771Y-81642856D02*
X124015771Y-81404761D01*
X124015771Y-81404761D02*
X124063390Y-81309523D01*
X124063390Y-81309523D02*
X124111009Y-81261904D01*
X124111009Y-81261904D02*
X124206247Y-81214285D01*
X124206247Y-81214285D02*
X124444342Y-81214285D01*
X124444342Y-81214285D02*
X124539580Y-81261904D01*
X124539580Y-81261904D02*
X124587200Y-81309523D01*
X124587200Y-81309523D02*
X124634819Y-81404761D01*
X124634819Y-81404761D02*
X124634819Y-81642856D01*
X124634819Y-81642856D02*
X124587200Y-81738094D01*
X124587200Y-81738094D02*
X124539580Y-81785713D01*
X135434819Y-97873333D02*
X136149104Y-97873333D01*
X136149104Y-97873333D02*
X136291961Y-97920952D01*
X136291961Y-97920952D02*
X136387200Y-98016190D01*
X136387200Y-98016190D02*
X136434819Y-98159047D01*
X136434819Y-98159047D02*
X136434819Y-98254285D01*
X135434819Y-97492380D02*
X135434819Y-96825714D01*
X135434819Y-96825714D02*
X136434819Y-97254285D01*
X113333333Y-83104819D02*
X113000000Y-82628628D01*
X112761905Y-83104819D02*
X112761905Y-82104819D01*
X112761905Y-82104819D02*
X113142857Y-82104819D01*
X113142857Y-82104819D02*
X113238095Y-82152438D01*
X113238095Y-82152438D02*
X113285714Y-82200057D01*
X113285714Y-82200057D02*
X113333333Y-82295295D01*
X113333333Y-82295295D02*
X113333333Y-82438152D01*
X113333333Y-82438152D02*
X113285714Y-82533390D01*
X113285714Y-82533390D02*
X113238095Y-82581009D01*
X113238095Y-82581009D02*
X113142857Y-82628628D01*
X113142857Y-82628628D02*
X112761905Y-82628628D01*
X114238095Y-82104819D02*
X113761905Y-82104819D01*
X113761905Y-82104819D02*
X113714286Y-82581009D01*
X113714286Y-82581009D02*
X113761905Y-82533390D01*
X113761905Y-82533390D02*
X113857143Y-82485771D01*
X113857143Y-82485771D02*
X114095238Y-82485771D01*
X114095238Y-82485771D02*
X114190476Y-82533390D01*
X114190476Y-82533390D02*
X114238095Y-82581009D01*
X114238095Y-82581009D02*
X114285714Y-82676247D01*
X114285714Y-82676247D02*
X114285714Y-82914342D01*
X114285714Y-82914342D02*
X114238095Y-83009580D01*
X114238095Y-83009580D02*
X114190476Y-83057200D01*
X114190476Y-83057200D02*
X114095238Y-83104819D01*
X114095238Y-83104819D02*
X113857143Y-83104819D01*
X113857143Y-83104819D02*
X113761905Y-83057200D01*
X113761905Y-83057200D02*
X113714286Y-83009580D01*
X118738095Y-86907200D02*
X118880952Y-86954819D01*
X118880952Y-86954819D02*
X119119047Y-86954819D01*
X119119047Y-86954819D02*
X119214285Y-86907200D01*
X119214285Y-86907200D02*
X119261904Y-86859580D01*
X119261904Y-86859580D02*
X119309523Y-86764342D01*
X119309523Y-86764342D02*
X119309523Y-86669104D01*
X119309523Y-86669104D02*
X119261904Y-86573866D01*
X119261904Y-86573866D02*
X119214285Y-86526247D01*
X119214285Y-86526247D02*
X119119047Y-86478628D01*
X119119047Y-86478628D02*
X118928571Y-86431009D01*
X118928571Y-86431009D02*
X118833333Y-86383390D01*
X118833333Y-86383390D02*
X118785714Y-86335771D01*
X118785714Y-86335771D02*
X118738095Y-86240533D01*
X118738095Y-86240533D02*
X118738095Y-86145295D01*
X118738095Y-86145295D02*
X118785714Y-86050057D01*
X118785714Y-86050057D02*
X118833333Y-86002438D01*
X118833333Y-86002438D02*
X118928571Y-85954819D01*
X118928571Y-85954819D02*
X119166666Y-85954819D01*
X119166666Y-85954819D02*
X119309523Y-86002438D01*
X120261904Y-86954819D02*
X119690476Y-86954819D01*
X119976190Y-86954819D02*
X119976190Y-85954819D01*
X119976190Y-85954819D02*
X119880952Y-86097676D01*
X119880952Y-86097676D02*
X119785714Y-86192914D01*
X119785714Y-86192914D02*
X119690476Y-86240533D01*
X149542200Y-95686904D02*
X149589819Y-95544047D01*
X149589819Y-95544047D02*
X149589819Y-95305952D01*
X149589819Y-95305952D02*
X149542200Y-95210714D01*
X149542200Y-95210714D02*
X149494580Y-95163095D01*
X149494580Y-95163095D02*
X149399342Y-95115476D01*
X149399342Y-95115476D02*
X149304104Y-95115476D01*
X149304104Y-95115476D02*
X149208866Y-95163095D01*
X149208866Y-95163095D02*
X149161247Y-95210714D01*
X149161247Y-95210714D02*
X149113628Y-95305952D01*
X149113628Y-95305952D02*
X149066009Y-95496428D01*
X149066009Y-95496428D02*
X149018390Y-95591666D01*
X149018390Y-95591666D02*
X148970771Y-95639285D01*
X148970771Y-95639285D02*
X148875533Y-95686904D01*
X148875533Y-95686904D02*
X148780295Y-95686904D01*
X148780295Y-95686904D02*
X148685057Y-95639285D01*
X148685057Y-95639285D02*
X148637438Y-95591666D01*
X148637438Y-95591666D02*
X148589819Y-95496428D01*
X148589819Y-95496428D02*
X148589819Y-95258333D01*
X148589819Y-95258333D02*
X148637438Y-95115476D01*
X148685057Y-94734523D02*
X148637438Y-94686904D01*
X148637438Y-94686904D02*
X148589819Y-94591666D01*
X148589819Y-94591666D02*
X148589819Y-94353571D01*
X148589819Y-94353571D02*
X148637438Y-94258333D01*
X148637438Y-94258333D02*
X148685057Y-94210714D01*
X148685057Y-94210714D02*
X148780295Y-94163095D01*
X148780295Y-94163095D02*
X148875533Y-94163095D01*
X148875533Y-94163095D02*
X149018390Y-94210714D01*
X149018390Y-94210714D02*
X149589819Y-94782142D01*
X149589819Y-94782142D02*
X149589819Y-94163095D01*
X119039580Y-74129166D02*
X119087200Y-74176785D01*
X119087200Y-74176785D02*
X119134819Y-74319642D01*
X119134819Y-74319642D02*
X119134819Y-74414880D01*
X119134819Y-74414880D02*
X119087200Y-74557737D01*
X119087200Y-74557737D02*
X118991961Y-74652975D01*
X118991961Y-74652975D02*
X118896723Y-74700594D01*
X118896723Y-74700594D02*
X118706247Y-74748213D01*
X118706247Y-74748213D02*
X118563390Y-74748213D01*
X118563390Y-74748213D02*
X118372914Y-74700594D01*
X118372914Y-74700594D02*
X118277676Y-74652975D01*
X118277676Y-74652975D02*
X118182438Y-74557737D01*
X118182438Y-74557737D02*
X118134819Y-74414880D01*
X118134819Y-74414880D02*
X118134819Y-74319642D01*
X118134819Y-74319642D02*
X118182438Y-74176785D01*
X118182438Y-74176785D02*
X118230057Y-74129166D01*
X118468152Y-73272023D02*
X119134819Y-73272023D01*
X118087200Y-73510118D02*
X118801485Y-73748213D01*
X118801485Y-73748213D02*
X118801485Y-73129166D01*
X115295833Y-95539580D02*
X115248214Y-95587200D01*
X115248214Y-95587200D02*
X115105357Y-95634819D01*
X115105357Y-95634819D02*
X115010119Y-95634819D01*
X115010119Y-95634819D02*
X114867262Y-95587200D01*
X114867262Y-95587200D02*
X114772024Y-95491961D01*
X114772024Y-95491961D02*
X114724405Y-95396723D01*
X114724405Y-95396723D02*
X114676786Y-95206247D01*
X114676786Y-95206247D02*
X114676786Y-95063390D01*
X114676786Y-95063390D02*
X114724405Y-94872914D01*
X114724405Y-94872914D02*
X114772024Y-94777676D01*
X114772024Y-94777676D02*
X114867262Y-94682438D01*
X114867262Y-94682438D02*
X115010119Y-94634819D01*
X115010119Y-94634819D02*
X115105357Y-94634819D01*
X115105357Y-94634819D02*
X115248214Y-94682438D01*
X115248214Y-94682438D02*
X115295833Y-94730057D01*
X116152976Y-94634819D02*
X115962500Y-94634819D01*
X115962500Y-94634819D02*
X115867262Y-94682438D01*
X115867262Y-94682438D02*
X115819643Y-94730057D01*
X115819643Y-94730057D02*
X115724405Y-94872914D01*
X115724405Y-94872914D02*
X115676786Y-95063390D01*
X115676786Y-95063390D02*
X115676786Y-95444342D01*
X115676786Y-95444342D02*
X115724405Y-95539580D01*
X115724405Y-95539580D02*
X115772024Y-95587200D01*
X115772024Y-95587200D02*
X115867262Y-95634819D01*
X115867262Y-95634819D02*
X116057738Y-95634819D01*
X116057738Y-95634819D02*
X116152976Y-95587200D01*
X116152976Y-95587200D02*
X116200595Y-95539580D01*
X116200595Y-95539580D02*
X116248214Y-95444342D01*
X116248214Y-95444342D02*
X116248214Y-95206247D01*
X116248214Y-95206247D02*
X116200595Y-95111009D01*
X116200595Y-95111009D02*
X116152976Y-95063390D01*
X116152976Y-95063390D02*
X116057738Y-95015771D01*
X116057738Y-95015771D02*
X115867262Y-95015771D01*
X115867262Y-95015771D02*
X115772024Y-95063390D01*
X115772024Y-95063390D02*
X115724405Y-95111009D01*
X115724405Y-95111009D02*
X115676786Y-95206247D01*
X115530833Y-92788276D02*
X115317499Y-92483514D01*
X115165118Y-92788276D02*
X115165118Y-92148276D01*
X115165118Y-92148276D02*
X115408928Y-92148276D01*
X115408928Y-92148276D02*
X115469880Y-92178752D01*
X115469880Y-92178752D02*
X115500357Y-92209228D01*
X115500357Y-92209228D02*
X115530833Y-92270180D01*
X115530833Y-92270180D02*
X115530833Y-92361609D01*
X115530833Y-92361609D02*
X115500357Y-92422561D01*
X115500357Y-92422561D02*
X115469880Y-92453038D01*
X115469880Y-92453038D02*
X115408928Y-92483514D01*
X115408928Y-92483514D02*
X115165118Y-92483514D01*
X115744166Y-92148276D02*
X116140357Y-92148276D01*
X116140357Y-92148276D02*
X115927023Y-92392085D01*
X115927023Y-92392085D02*
X116018452Y-92392085D01*
X116018452Y-92392085D02*
X116079404Y-92422561D01*
X116079404Y-92422561D02*
X116109880Y-92453038D01*
X116109880Y-92453038D02*
X116140357Y-92513990D01*
X116140357Y-92513990D02*
X116140357Y-92666371D01*
X116140357Y-92666371D02*
X116109880Y-92727323D01*
X116109880Y-92727323D02*
X116079404Y-92757800D01*
X116079404Y-92757800D02*
X116018452Y-92788276D01*
X116018452Y-92788276D02*
X115835595Y-92788276D01*
X115835595Y-92788276D02*
X115774642Y-92757800D01*
X115774642Y-92757800D02*
X115744166Y-92727323D01*
X145333333Y-89304819D02*
X145000000Y-88828628D01*
X144761905Y-89304819D02*
X144761905Y-88304819D01*
X144761905Y-88304819D02*
X145142857Y-88304819D01*
X145142857Y-88304819D02*
X145238095Y-88352438D01*
X145238095Y-88352438D02*
X145285714Y-88400057D01*
X145285714Y-88400057D02*
X145333333Y-88495295D01*
X145333333Y-88495295D02*
X145333333Y-88638152D01*
X145333333Y-88638152D02*
X145285714Y-88733390D01*
X145285714Y-88733390D02*
X145238095Y-88781009D01*
X145238095Y-88781009D02*
X145142857Y-88828628D01*
X145142857Y-88828628D02*
X144761905Y-88828628D01*
X145714286Y-88400057D02*
X145761905Y-88352438D01*
X145761905Y-88352438D02*
X145857143Y-88304819D01*
X145857143Y-88304819D02*
X146095238Y-88304819D01*
X146095238Y-88304819D02*
X146190476Y-88352438D01*
X146190476Y-88352438D02*
X146238095Y-88400057D01*
X146238095Y-88400057D02*
X146285714Y-88495295D01*
X146285714Y-88495295D02*
X146285714Y-88590533D01*
X146285714Y-88590533D02*
X146238095Y-88733390D01*
X146238095Y-88733390D02*
X145666667Y-89304819D01*
X145666667Y-89304819D02*
X146285714Y-89304819D01*
X149666666Y-90454819D02*
X149666666Y-91169104D01*
X149666666Y-91169104D02*
X149619047Y-91311961D01*
X149619047Y-91311961D02*
X149523809Y-91407200D01*
X149523809Y-91407200D02*
X149380952Y-91454819D01*
X149380952Y-91454819D02*
X149285714Y-91454819D01*
X150571428Y-90788152D02*
X150571428Y-91454819D01*
X150333333Y-90407200D02*
X150095238Y-91121485D01*
X150095238Y-91121485D02*
X150714285Y-91121485D01*
X149666666Y-81454819D02*
X149666666Y-82169104D01*
X149666666Y-82169104D02*
X149619047Y-82311961D01*
X149619047Y-82311961D02*
X149523809Y-82407200D01*
X149523809Y-82407200D02*
X149380952Y-82454819D01*
X149380952Y-82454819D02*
X149285714Y-82454819D01*
X150619047Y-81454819D02*
X150142857Y-81454819D01*
X150142857Y-81454819D02*
X150095238Y-81931009D01*
X150095238Y-81931009D02*
X150142857Y-81883390D01*
X150142857Y-81883390D02*
X150238095Y-81835771D01*
X150238095Y-81835771D02*
X150476190Y-81835771D01*
X150476190Y-81835771D02*
X150571428Y-81883390D01*
X150571428Y-81883390D02*
X150619047Y-81931009D01*
X150619047Y-81931009D02*
X150666666Y-82026247D01*
X150666666Y-82026247D02*
X150666666Y-82264342D01*
X150666666Y-82264342D02*
X150619047Y-82359580D01*
X150619047Y-82359580D02*
X150571428Y-82407200D01*
X150571428Y-82407200D02*
X150476190Y-82454819D01*
X150476190Y-82454819D02*
X150238095Y-82454819D01*
X150238095Y-82454819D02*
X150142857Y-82407200D01*
X150142857Y-82407200D02*
X150095238Y-82359580D01*
X110088095Y-79754819D02*
X110088095Y-80564342D01*
X110088095Y-80564342D02*
X110135714Y-80659580D01*
X110135714Y-80659580D02*
X110183333Y-80707200D01*
X110183333Y-80707200D02*
X110278571Y-80754819D01*
X110278571Y-80754819D02*
X110469047Y-80754819D01*
X110469047Y-80754819D02*
X110564285Y-80707200D01*
X110564285Y-80707200D02*
X110611904Y-80659580D01*
X110611904Y-80659580D02*
X110659523Y-80564342D01*
X110659523Y-80564342D02*
X110659523Y-79754819D01*
X111040476Y-79754819D02*
X111659523Y-79754819D01*
X111659523Y-79754819D02*
X111326190Y-80135771D01*
X111326190Y-80135771D02*
X111469047Y-80135771D01*
X111469047Y-80135771D02*
X111564285Y-80183390D01*
X111564285Y-80183390D02*
X111611904Y-80231009D01*
X111611904Y-80231009D02*
X111659523Y-80326247D01*
X111659523Y-80326247D02*
X111659523Y-80564342D01*
X111659523Y-80564342D02*
X111611904Y-80659580D01*
X111611904Y-80659580D02*
X111564285Y-80707200D01*
X111564285Y-80707200D02*
X111469047Y-80754819D01*
X111469047Y-80754819D02*
X111183333Y-80754819D01*
X111183333Y-80754819D02*
X111088095Y-80707200D01*
X111088095Y-80707200D02*
X111040476Y-80659580D01*
X118539580Y-82166666D02*
X118587200Y-82214285D01*
X118587200Y-82214285D02*
X118634819Y-82357142D01*
X118634819Y-82357142D02*
X118634819Y-82452380D01*
X118634819Y-82452380D02*
X118587200Y-82595237D01*
X118587200Y-82595237D02*
X118491961Y-82690475D01*
X118491961Y-82690475D02*
X118396723Y-82738094D01*
X118396723Y-82738094D02*
X118206247Y-82785713D01*
X118206247Y-82785713D02*
X118063390Y-82785713D01*
X118063390Y-82785713D02*
X117872914Y-82738094D01*
X117872914Y-82738094D02*
X117777676Y-82690475D01*
X117777676Y-82690475D02*
X117682438Y-82595237D01*
X117682438Y-82595237D02*
X117634819Y-82452380D01*
X117634819Y-82452380D02*
X117634819Y-82357142D01*
X117634819Y-82357142D02*
X117682438Y-82214285D01*
X117682438Y-82214285D02*
X117730057Y-82166666D01*
X117634819Y-81833332D02*
X117634819Y-81166666D01*
X117634819Y-81166666D02*
X118634819Y-81595237D01*
X115333333Y-84804819D02*
X115000000Y-84328628D01*
X114761905Y-84804819D02*
X114761905Y-83804819D01*
X114761905Y-83804819D02*
X115142857Y-83804819D01*
X115142857Y-83804819D02*
X115238095Y-83852438D01*
X115238095Y-83852438D02*
X115285714Y-83900057D01*
X115285714Y-83900057D02*
X115333333Y-83995295D01*
X115333333Y-83995295D02*
X115333333Y-84138152D01*
X115333333Y-84138152D02*
X115285714Y-84233390D01*
X115285714Y-84233390D02*
X115238095Y-84281009D01*
X115238095Y-84281009D02*
X115142857Y-84328628D01*
X115142857Y-84328628D02*
X114761905Y-84328628D01*
X116285714Y-84804819D02*
X115714286Y-84804819D01*
X116000000Y-84804819D02*
X116000000Y-83804819D01*
X116000000Y-83804819D02*
X115904762Y-83947676D01*
X115904762Y-83947676D02*
X115809524Y-84042914D01*
X115809524Y-84042914D02*
X115714286Y-84090533D01*
X121077319Y-90626904D02*
X121886842Y-90626904D01*
X121886842Y-90626904D02*
X121982080Y-90579285D01*
X121982080Y-90579285D02*
X122029700Y-90531666D01*
X122029700Y-90531666D02*
X122077319Y-90436428D01*
X122077319Y-90436428D02*
X122077319Y-90245952D01*
X122077319Y-90245952D02*
X122029700Y-90150714D01*
X122029700Y-90150714D02*
X121982080Y-90103095D01*
X121982080Y-90103095D02*
X121886842Y-90055476D01*
X121886842Y-90055476D02*
X121077319Y-90055476D01*
X121172557Y-89626904D02*
X121124938Y-89579285D01*
X121124938Y-89579285D02*
X121077319Y-89484047D01*
X121077319Y-89484047D02*
X121077319Y-89245952D01*
X121077319Y-89245952D02*
X121124938Y-89150714D01*
X121124938Y-89150714D02*
X121172557Y-89103095D01*
X121172557Y-89103095D02*
X121267795Y-89055476D01*
X121267795Y-89055476D02*
X121363033Y-89055476D01*
X121363033Y-89055476D02*
X121505890Y-89103095D01*
X121505890Y-89103095D02*
X122077319Y-89674523D01*
X122077319Y-89674523D02*
X122077319Y-89055476D01*
D11*
%TO.C,J1*%
X109032857Y-94616371D02*
X107032857Y-94616371D01*
X109032857Y-85216371D02*
X107032857Y-85216371D01*
X105132857Y-94616371D02*
X103232857Y-94616371D01*
X105132857Y-85216371D02*
X103232857Y-85216371D01*
X103232857Y-85216371D02*
X103232857Y-94616371D01*
%TO.C,U1*%
X124300000Y-72625000D02*
X123800000Y-72625000D01*
X124300000Y-72125000D01*
X124300000Y-72625000D01*
G36*
X124300000Y-72625000D02*
G01*
X123800000Y-72625000D01*
X124300000Y-72125000D01*
X124300000Y-72625000D01*
G37*
X142700000Y-91600000D02*
X142700000Y-90600000D01*
X142700000Y-91600000D02*
X141200000Y-91600000D01*
X142700000Y-65750000D02*
X142700000Y-71950000D01*
X124300000Y-91600000D02*
X125800000Y-91600000D01*
X124300000Y-90600000D02*
X124300000Y-91600000D01*
X124300000Y-65750000D02*
X142700000Y-65750000D01*
X124300000Y-65750000D02*
X124300000Y-71950000D01*
%TO.C,C1*%
X120235000Y-73626748D02*
X120235000Y-74149252D01*
X118765000Y-73626748D02*
X118765000Y-74149252D01*
%TO.C,C3*%
X123235000Y-73626748D02*
X123235000Y-74149252D01*
X121765000Y-73626748D02*
X121765000Y-74149252D01*
%TO.C,J2*%
X135940000Y-96440000D02*
X135940000Y-98560000D01*
X142000000Y-96440000D02*
X135940000Y-96440000D01*
X142000000Y-96440000D02*
X142000000Y-98560000D01*
X142000000Y-98560000D02*
X135940000Y-98560000D01*
X144060000Y-97500000D02*
X144060000Y-98560000D01*
X144060000Y-98560000D02*
X143000000Y-98560000D01*
D12*
%TO.C,D1*%
X110847500Y-83780000D02*
X112547500Y-83780000D01*
X112547500Y-82480000D02*
X110847500Y-82480000D01*
D13*
X109597500Y-83130000D02*
G75*
G02*
X109397500Y-83130000I-100000J0D01*
G01*
X109397500Y-83130000D02*
G75*
G02*
X109597500Y-83130000I100000J0D01*
G01*
D11*
%TO.C,C2*%
X117761252Y-77265000D02*
X117238748Y-77265000D01*
X117761252Y-78735000D02*
X117238748Y-78735000D01*
%TO.C,C5*%
X121765000Y-81738748D02*
X121765000Y-82261252D01*
X123235000Y-81738748D02*
X123235000Y-82261252D01*
%TO.C,J7*%
X112760000Y-96430000D02*
X112760000Y-98650000D01*
X132870000Y-96430000D02*
X112760000Y-96430000D01*
X132870000Y-96430000D02*
X132870000Y-98650000D01*
X132870000Y-98650000D02*
X112760000Y-98650000D01*
X133870000Y-96430000D02*
X134980000Y-96430000D01*
X134980000Y-96430000D02*
X134980000Y-97540000D01*
%TO.C,R5*%
X113727064Y-80265000D02*
X113272936Y-80265000D01*
X113727064Y-81735000D02*
X113272936Y-81735000D01*
D12*
%TO.C,S1*%
X118050000Y-81000000D02*
X118280000Y-81000000D01*
X118050000Y-85000000D02*
X118050000Y-81000000D01*
X118050000Y-85000000D02*
X118280000Y-85000000D01*
X120720000Y-81000000D02*
X120950000Y-81000000D01*
X120950000Y-81000000D02*
X120950000Y-85000000D01*
X120950000Y-85000000D02*
X120720000Y-85000000D01*
%TO.C,S2*%
X145050000Y-92500000D02*
X145280000Y-92500000D01*
X145050000Y-96500000D02*
X145050000Y-92500000D01*
X145050000Y-96500000D02*
X145280000Y-96500000D01*
X147720000Y-92500000D02*
X147950000Y-92500000D01*
X147950000Y-92500000D02*
X147950000Y-96500000D01*
X147950000Y-96500000D02*
X147720000Y-96500000D01*
D11*
%TO.C,J3*%
X148940000Y-96500000D02*
X148940000Y-90440000D01*
X148940000Y-98560000D02*
X148940000Y-97500000D01*
X150000000Y-98560000D02*
X148940000Y-98560000D01*
X151060000Y-90440000D02*
X148940000Y-90440000D01*
X151060000Y-96500000D02*
X148940000Y-96500000D01*
X151060000Y-96500000D02*
X151060000Y-90440000D01*
%TO.C,C4*%
X116265000Y-73701248D02*
X116265000Y-74223752D01*
X117735000Y-73701248D02*
X117735000Y-74223752D01*
%TO.C,C6*%
X115723752Y-92765000D02*
X115201248Y-92765000D01*
X115723752Y-94235000D02*
X115201248Y-94235000D01*
D12*
%TO.C,R3*%
X115182500Y-90375000D02*
X115742500Y-90375000D01*
X115182500Y-91625000D02*
X115742500Y-91625000D01*
D11*
%TO.C,R2*%
X145272936Y-89765000D02*
X145727064Y-89765000D01*
X145272936Y-91235000D02*
X145727064Y-91235000D01*
%TO.C,J4*%
X148940000Y-87500000D02*
X148940000Y-81440000D01*
X148940000Y-89560000D02*
X148940000Y-88500000D01*
X150000000Y-89560000D02*
X148940000Y-89560000D01*
X151060000Y-81440000D02*
X148940000Y-81440000D01*
X151060000Y-87500000D02*
X148940000Y-87500000D01*
X151060000Y-87500000D02*
X151060000Y-81440000D01*
%TO.C,J5*%
X148940000Y-78500000D02*
X148940000Y-72440000D01*
X148940000Y-80560000D02*
X148940000Y-79500000D01*
X150000000Y-80560000D02*
X148940000Y-80560000D01*
X151060000Y-72440000D02*
X148940000Y-72440000D01*
X151060000Y-78500000D02*
X148940000Y-78500000D01*
X151060000Y-78500000D02*
X151060000Y-72440000D01*
%TO.C,U3*%
X108940000Y-72390000D02*
X108940000Y-73650000D01*
X108940000Y-79210000D02*
X108940000Y-77950000D01*
X112700000Y-72390000D02*
X108940000Y-72390000D01*
X112700000Y-79210000D02*
X108940000Y-79210000D01*
X114220000Y-79440000D02*
X113740000Y-79440000D01*
X113980000Y-79110000D01*
X114220000Y-79440000D01*
G36*
X114220000Y-79440000D02*
G01*
X113740000Y-79440000D01*
X113980000Y-79110000D01*
X114220000Y-79440000D01*
G37*
%TO.C,C7*%
X115765000Y-81738748D02*
X115765000Y-82261252D01*
X117235000Y-81738748D02*
X117235000Y-82261252D01*
%TO.C,R1*%
X115272936Y-85265000D02*
X115727064Y-85265000D01*
X115272936Y-86735000D02*
X115727064Y-86735000D01*
%TO.C,U2*%
X118670000Y-90165000D02*
X118670000Y-88865000D01*
X120650000Y-90165000D02*
X120650000Y-89115000D01*
X120930000Y-88745000D02*
X120650000Y-88745000D01*
X120650000Y-88465000D01*
X120930000Y-88745000D01*
G36*
X120930000Y-88745000D02*
G01*
X120650000Y-88745000D01*
X120650000Y-88465000D01*
X120930000Y-88745000D01*
G37*
%TD*%
M02*
