%TF.GenerationSoftware,KiCad,Pcbnew,9.0.1*%
%TF.CreationDate,2025-07-10T19:48:23+10:00*%
%TF.ProjectId,esp-32-s3-wroom-1,6573702d-3332-42d7-9333-2d77726f6f6d,rev?*%
%TF.SameCoordinates,Original*%
%TF.FileFunction,Copper,L2,Inr*%
%TF.FilePolarity,Positive*%
%FSLAX46Y46*%
G04 Gerber Fmt 4.6, Leading zero omitted, Abs format (unit mm)*
G04 Created by KiCad (PCBNEW 9.0.1) date 2025-07-10 19:48:23*
%MOMM*%
%LPD*%
G01*
G04 APERTURE LIST*
%TA.AperFunction,HeatsinkPad*%
%ADD10O,1.600000X1.000000*%
%TD*%
%TA.AperFunction,HeatsinkPad*%
%ADD11O,2.100000X1.000000*%
%TD*%
%TA.AperFunction,HeatsinkPad*%
%ADD12C,0.600000*%
%TD*%
%TA.AperFunction,ComponentPad*%
%ADD13R,1.350000X1.350000*%
%TD*%
%TA.AperFunction,ComponentPad*%
%ADD14C,1.350000*%
%TD*%
%TA.AperFunction,ViaPad*%
%ADD15C,0.600000*%
%TD*%
G04 APERTURE END LIST*
D10*
%TO.N,GND*%
%TO.C,J1*%
X106082857Y-94236371D03*
D11*
X110262857Y-94236371D03*
D10*
X106082857Y-85596371D03*
D11*
X110262857Y-85596371D03*
%TD*%
D12*
%TO.N,GND*%
%TO.C,U1*%
X133400000Y-81810000D03*
X133400000Y-80410000D03*
X132700000Y-82510000D03*
X132700000Y-81110000D03*
X132700000Y-79710000D03*
X132000000Y-81810000D03*
X132000000Y-80410000D03*
X131300000Y-82510000D03*
X131300000Y-81110000D03*
X131300000Y-79710000D03*
X130600000Y-81810000D03*
X130600000Y-80410000D03*
%TD*%
D13*
%TO.N,+3.3V*%
%TO.C,J2*%
X143000000Y-97500000D03*
D14*
%TO.N,GND*%
X141000000Y-97500000D03*
%TO.N,/SCL*%
X139000000Y-97500000D03*
%TO.N,/SDA*%
X137000000Y-97500000D03*
%TD*%
D13*
%TO.N,/IO14*%
%TO.C,J7*%
X133870000Y-97540000D03*
D14*
%TO.N,/IO13*%
X131870000Y-97540000D03*
%TO.N,/IO12*%
X129870000Y-97540000D03*
%TO.N,/IO11*%
X127870000Y-97540000D03*
%TO.N,/IO10*%
X125870000Y-97540000D03*
%TO.N,/IO9*%
X123870000Y-97540000D03*
%TO.N,/IO46*%
X121870000Y-97540000D03*
%TO.N,/IO3*%
X119870000Y-97540000D03*
%TO.N,/IO8*%
X117870000Y-97540000D03*
%TO.N,/IO16*%
X115870000Y-97540000D03*
%TO.N,/IO15*%
X113870000Y-97540000D03*
%TD*%
D13*
%TO.N,/IO48*%
%TO.C,J3*%
X150000000Y-97500000D03*
D14*
%TO.N,/IO45*%
X150000000Y-95500000D03*
%TO.N,/IO35*%
X150000000Y-93500000D03*
%TO.N,/IO36*%
X150000000Y-91500000D03*
%TD*%
D13*
%TO.N,/IO37*%
%TO.C,J4*%
X150000000Y-88500000D03*
D14*
%TO.N,/IO38*%
X150000000Y-86500000D03*
%TO.N,/IO39*%
X150000000Y-84500000D03*
%TO.N,/IO40*%
X150000000Y-82500000D03*
%TD*%
D13*
%TO.N,/IO41*%
%TO.C,J5*%
X150000000Y-79500000D03*
D14*
%TO.N,/IO42*%
X150000000Y-77500000D03*
%TO.N,/IO5*%
X150000000Y-75500000D03*
%TO.N,/IO4*%
X150000000Y-73500000D03*
%TD*%
D15*
%TO.N,GND*%
X118537500Y-78000000D03*
X119660000Y-87620000D03*
X146500000Y-96575000D03*
%TO.N,/SCL*%
X124750000Y-84820000D03*
%TO.N,/SDA*%
X124750000Y-86090000D03*
%TO.N,+3.3V*%
X112500000Y-81000000D03*
%TO.N,GND*%
X116500000Y-93500000D03*
%TO.N,/VBUS*%
X118963976Y-91111906D03*
%TO.N,GND*%
X116637500Y-91000000D03*
%TO.N,/VBUS*%
X114425000Y-93500000D03*
%TO.N,GND*%
X111177857Y-93166371D03*
%TO.N,/VBUS*%
X111177857Y-92366371D03*
%TO.N,GND*%
X111177857Y-86666371D03*
%TO.N,/VBUS*%
X111177857Y-87466371D03*
%TO.N,GND*%
X122500000Y-72850500D03*
X119500000Y-72850500D03*
X117000000Y-72962500D03*
%TO.N,/IO35*%
X142250000Y-88630000D03*
%TO.N,/IO5*%
X124750000Y-78470000D03*
%TO.N,/IO4*%
X124750000Y-77200000D03*
%TO.N,/IO8*%
X124750000Y-87360000D03*
%TO.N,/IO15*%
X124750000Y-82280000D03*
%TO.N,/IO16*%
X124750000Y-83550000D03*
%TO.N,GND*%
X142250000Y-73390000D03*
X122500000Y-83037500D03*
X116500000Y-86000000D03*
X116500000Y-83037500D03*
X119500000Y-85075000D03*
X124750000Y-73390000D03*
%TO.N,+3.3V*%
X124750000Y-74660000D03*
X122500000Y-74925500D03*
X119500000Y-74925500D03*
X117000000Y-75037500D03*
%TO.N,GND*%
X114000000Y-75800000D03*
X108200000Y-76300000D03*
X107200000Y-76300000D03*
X108200000Y-75300000D03*
X107200000Y-75300000D03*
%TO.N,+3.3V*%
X114000000Y-73500000D03*
%TD*%
%TA.AperFunction,Conductor*%
%TO.N,GND*%
G36*
X110478061Y-92796068D02*
G01*
X110531939Y-92840553D01*
X110532351Y-92841166D01*
X110556067Y-92876659D01*
X110556070Y-92876663D01*
X110667564Y-92988157D01*
X110667568Y-92988160D01*
X110699159Y-93009269D01*
X110743964Y-93062882D01*
X110752671Y-93132207D01*
X110722516Y-93195234D01*
X110663073Y-93231953D01*
X110630268Y-93236371D01*
X110512857Y-93236371D01*
X110512857Y-93936371D01*
X110012857Y-93936371D01*
X110012857Y-93380834D01*
X110032542Y-93313795D01*
X110074857Y-93273447D01*
X110086222Y-93266886D01*
X110193372Y-93159736D01*
X110269138Y-93028506D01*
X110308357Y-92882137D01*
X110308357Y-92882132D01*
X110309474Y-92877964D01*
X110345838Y-92818304D01*
X110408685Y-92787774D01*
X110478061Y-92796068D01*
G37*
%TD.AperFunction*%
%TA.AperFunction,Conductor*%
G36*
X110512857Y-86596371D02*
G01*
X110630268Y-86596371D01*
X110697307Y-86616056D01*
X110743062Y-86668860D01*
X110753006Y-86738018D01*
X110723981Y-86801574D01*
X110699159Y-86823473D01*
X110667568Y-86844581D01*
X110667564Y-86844584D01*
X110556070Y-86956078D01*
X110556065Y-86956085D01*
X110532350Y-86991576D01*
X110478737Y-87036381D01*
X110409412Y-87045087D01*
X110346385Y-87014931D01*
X110309667Y-86955488D01*
X110309474Y-86954777D01*
X110308357Y-86950608D01*
X110308357Y-86950605D01*
X110269138Y-86804236D01*
X110193372Y-86673006D01*
X110086222Y-86565856D01*
X110074855Y-86559293D01*
X110026640Y-86508725D01*
X110012857Y-86451907D01*
X110012857Y-85896371D01*
X110512857Y-85896371D01*
X110512857Y-86596371D01*
G37*
%TD.AperFunction*%
%TA.AperFunction,Conductor*%
G36*
X159432539Y-66040185D02*
G01*
X159478294Y-66092989D01*
X159489500Y-66144500D01*
X159489500Y-99895500D01*
X159469815Y-99962539D01*
X159417011Y-100008294D01*
X159365500Y-100019500D01*
X100664500Y-100019500D01*
X100597461Y-99999815D01*
X100551706Y-99947011D01*
X100540500Y-99895500D01*
X100540500Y-97447486D01*
X112694500Y-97447486D01*
X112694500Y-97632514D01*
X112708374Y-97720110D01*
X112723445Y-97815265D01*
X112780619Y-97991232D01*
X112780620Y-97991235D01*
X112844241Y-98116096D01*
X112864622Y-98156096D01*
X112973379Y-98305787D01*
X113104213Y-98436621D01*
X113253904Y-98545378D01*
X113307224Y-98572546D01*
X113418764Y-98629379D01*
X113418767Y-98629380D01*
X113506750Y-98657967D01*
X113594736Y-98686555D01*
X113777486Y-98715500D01*
X113777487Y-98715500D01*
X113962513Y-98715500D01*
X113962514Y-98715500D01*
X114145264Y-98686555D01*
X114321235Y-98629379D01*
X114486096Y-98545378D01*
X114635787Y-98436621D01*
X114766621Y-98305787D01*
X114769680Y-98301576D01*
X114825006Y-98258909D01*
X114894619Y-98252926D01*
X114956415Y-98285529D01*
X114970315Y-98301570D01*
X114973379Y-98305787D01*
X115104213Y-98436621D01*
X115253904Y-98545378D01*
X115307224Y-98572546D01*
X115418764Y-98629379D01*
X115418767Y-98629380D01*
X115506750Y-98657967D01*
X115594736Y-98686555D01*
X115777486Y-98715500D01*
X115777487Y-98715500D01*
X115962513Y-98715500D01*
X115962514Y-98715500D01*
X116145264Y-98686555D01*
X116321235Y-98629379D01*
X116486096Y-98545378D01*
X116635787Y-98436621D01*
X116766621Y-98305787D01*
X116769680Y-98301576D01*
X116825006Y-98258909D01*
X116894619Y-98252926D01*
X116956415Y-98285529D01*
X116970315Y-98301570D01*
X116973379Y-98305787D01*
X117104213Y-98436621D01*
X117253904Y-98545378D01*
X117307224Y-98572546D01*
X117418764Y-98629379D01*
X117418767Y-98629380D01*
X117506750Y-98657967D01*
X117594736Y-98686555D01*
X117777486Y-98715500D01*
X117777487Y-98715500D01*
X117962513Y-98715500D01*
X117962514Y-98715500D01*
X118145264Y-98686555D01*
X118321235Y-98629379D01*
X118486096Y-98545378D01*
X118635787Y-98436621D01*
X118766621Y-98305787D01*
X118769680Y-98301576D01*
X118825006Y-98258909D01*
X118894619Y-98252926D01*
X118956415Y-98285529D01*
X118970315Y-98301570D01*
X118973379Y-98305787D01*
X119104213Y-98436621D01*
X119253904Y-98545378D01*
X119307224Y-98572546D01*
X119418764Y-98629379D01*
X119418767Y-98629380D01*
X119506750Y-98657967D01*
X119594736Y-98686555D01*
X119777486Y-98715500D01*
X119777487Y-98715500D01*
X119962513Y-98715500D01*
X119962514Y-98715500D01*
X120145264Y-98686555D01*
X120321235Y-98629379D01*
X120486096Y-98545378D01*
X120635787Y-98436621D01*
X120766621Y-98305787D01*
X120769680Y-98301576D01*
X120825006Y-98258909D01*
X120894619Y-98252926D01*
X120956415Y-98285529D01*
X120970315Y-98301570D01*
X120973379Y-98305787D01*
X121104213Y-98436621D01*
X121253904Y-98545378D01*
X121307224Y-98572546D01*
X121418764Y-98629379D01*
X121418767Y-98629380D01*
X121506750Y-98657967D01*
X121594736Y-98686555D01*
X121777486Y-98715500D01*
X121777487Y-98715500D01*
X121962513Y-98715500D01*
X121962514Y-98715500D01*
X122145264Y-98686555D01*
X122321235Y-98629379D01*
X122486096Y-98545378D01*
X122635787Y-98436621D01*
X122766621Y-98305787D01*
X122769680Y-98301576D01*
X122825006Y-98258909D01*
X122894619Y-98252926D01*
X122956415Y-98285529D01*
X122970315Y-98301570D01*
X122973379Y-98305787D01*
X123104213Y-98436621D01*
X123253904Y-98545378D01*
X123307224Y-98572546D01*
X123418764Y-98629379D01*
X123418767Y-98629380D01*
X123506750Y-98657967D01*
X123594736Y-98686555D01*
X123777486Y-98715500D01*
X123777487Y-98715500D01*
X123962513Y-98715500D01*
X123962514Y-98715500D01*
X124145264Y-98686555D01*
X124321235Y-98629379D01*
X124486096Y-98545378D01*
X124635787Y-98436621D01*
X124766621Y-98305787D01*
X124769680Y-98301576D01*
X124825006Y-98258909D01*
X124894619Y-98252926D01*
X124956415Y-98285529D01*
X124970315Y-98301570D01*
X124973379Y-98305787D01*
X125104213Y-98436621D01*
X125253904Y-98545378D01*
X125307224Y-98572546D01*
X125418764Y-98629379D01*
X125418767Y-98629380D01*
X125506750Y-98657967D01*
X125594736Y-98686555D01*
X125777486Y-98715500D01*
X125777487Y-98715500D01*
X125962513Y-98715500D01*
X125962514Y-98715500D01*
X126145264Y-98686555D01*
X126321235Y-98629379D01*
X126486096Y-98545378D01*
X126635787Y-98436621D01*
X126766621Y-98305787D01*
X126769680Y-98301576D01*
X126825006Y-98258909D01*
X126894619Y-98252926D01*
X126956415Y-98285529D01*
X126970315Y-98301570D01*
X126973379Y-98305787D01*
X127104213Y-98436621D01*
X127253904Y-98545378D01*
X127307224Y-98572546D01*
X127418764Y-98629379D01*
X127418767Y-98629380D01*
X127506750Y-98657967D01*
X127594736Y-98686555D01*
X127777486Y-98715500D01*
X127777487Y-98715500D01*
X127962513Y-98715500D01*
X127962514Y-98715500D01*
X128145264Y-98686555D01*
X128321235Y-98629379D01*
X128486096Y-98545378D01*
X128635787Y-98436621D01*
X128766621Y-98305787D01*
X128769680Y-98301576D01*
X128825006Y-98258909D01*
X128894619Y-98252926D01*
X128956415Y-98285529D01*
X128970315Y-98301570D01*
X128973379Y-98305787D01*
X129104213Y-98436621D01*
X129253904Y-98545378D01*
X129307224Y-98572546D01*
X129418764Y-98629379D01*
X129418767Y-98629380D01*
X129506750Y-98657967D01*
X129594736Y-98686555D01*
X129777486Y-98715500D01*
X129777487Y-98715500D01*
X129962513Y-98715500D01*
X129962514Y-98715500D01*
X130145264Y-98686555D01*
X130321235Y-98629379D01*
X130486096Y-98545378D01*
X130635787Y-98436621D01*
X130766621Y-98305787D01*
X130769680Y-98301576D01*
X130825006Y-98258909D01*
X130894619Y-98252926D01*
X130956415Y-98285529D01*
X130970315Y-98301570D01*
X130973379Y-98305787D01*
X131104213Y-98436621D01*
X131253904Y-98545378D01*
X131307224Y-98572546D01*
X131418764Y-98629379D01*
X131418767Y-98629380D01*
X131506750Y-98657967D01*
X131594736Y-98686555D01*
X131777486Y-98715500D01*
X131777487Y-98715500D01*
X131962513Y-98715500D01*
X131962514Y-98715500D01*
X132145264Y-98686555D01*
X132321235Y-98629379D01*
X132486096Y-98545378D01*
X132601608Y-98461453D01*
X132667412Y-98437974D01*
X132735466Y-98453799D01*
X132773758Y-98487460D01*
X132837455Y-98572547D01*
X132952664Y-98658793D01*
X132952671Y-98658797D01*
X133087517Y-98709091D01*
X133087516Y-98709091D01*
X133094444Y-98709835D01*
X133147127Y-98715500D01*
X134592872Y-98715499D01*
X134652483Y-98709091D01*
X134787331Y-98658796D01*
X134902546Y-98572546D01*
X134988796Y-98457331D01*
X135039091Y-98322483D01*
X135045500Y-98262873D01*
X135045499Y-97407486D01*
X135824500Y-97407486D01*
X135824500Y-97592514D01*
X135833671Y-97650418D01*
X135853445Y-97775265D01*
X135910619Y-97951232D01*
X135910620Y-97951235D01*
X135994622Y-98116096D01*
X136103379Y-98265787D01*
X136234213Y-98396621D01*
X136383904Y-98505378D01*
X136437224Y-98532546D01*
X136548764Y-98589379D01*
X136548767Y-98589380D01*
X136636750Y-98617967D01*
X136724736Y-98646555D01*
X136907486Y-98675500D01*
X136907487Y-98675500D01*
X137092513Y-98675500D01*
X137092514Y-98675500D01*
X137275264Y-98646555D01*
X137451235Y-98589379D01*
X137616096Y-98505378D01*
X137765787Y-98396621D01*
X137896621Y-98265787D01*
X137899680Y-98261576D01*
X137955006Y-98218909D01*
X138024619Y-98212926D01*
X138086415Y-98245529D01*
X138100315Y-98261570D01*
X138103379Y-98265787D01*
X138234213Y-98396621D01*
X138383904Y-98505378D01*
X138437224Y-98532546D01*
X138548764Y-98589379D01*
X138548767Y-98589380D01*
X138636750Y-98617967D01*
X138724736Y-98646555D01*
X138907486Y-98675500D01*
X138907487Y-98675500D01*
X139092513Y-98675500D01*
X139092514Y-98675500D01*
X139275264Y-98646555D01*
X139451235Y-98589379D01*
X139616096Y-98505378D01*
X139765787Y-98396621D01*
X139896621Y-98265787D01*
X139950836Y-98191166D01*
X139970257Y-98176189D01*
X140600000Y-97546446D01*
X140600000Y-97552661D01*
X140627259Y-97654394D01*
X140679920Y-97745606D01*
X140754394Y-97820080D01*
X140845606Y-97872741D01*
X140947339Y-97900000D01*
X140953552Y-97900000D01*
X140363568Y-98489983D01*
X140363568Y-98489984D01*
X140384165Y-98504949D01*
X140548956Y-98588915D01*
X140548959Y-98588916D01*
X140724852Y-98646066D01*
X140907527Y-98675000D01*
X141092473Y-98675000D01*
X141275147Y-98646066D01*
X141451040Y-98588916D01*
X141451043Y-98588915D01*
X141615838Y-98504947D01*
X141731306Y-98421054D01*
X141797112Y-98397573D01*
X141865166Y-98413398D01*
X141903458Y-98447059D01*
X141967455Y-98532547D01*
X142082664Y-98618793D01*
X142082671Y-98618797D01*
X142217517Y-98669091D01*
X142217516Y-98669091D01*
X142224444Y-98669835D01*
X142277127Y-98675500D01*
X143722872Y-98675499D01*
X143782483Y-98669091D01*
X143917331Y-98618796D01*
X144032546Y-98532546D01*
X144118796Y-98417331D01*
X144169091Y-98282483D01*
X144175500Y-98222873D01*
X144175499Y-96777128D01*
X144169091Y-96717517D01*
X144141439Y-96643379D01*
X144118797Y-96582671D01*
X144118793Y-96582664D01*
X144032547Y-96467455D01*
X144032544Y-96467452D01*
X143917335Y-96381206D01*
X143917328Y-96381202D01*
X143782482Y-96330908D01*
X143782483Y-96330908D01*
X143722883Y-96324501D01*
X143722881Y-96324500D01*
X143722873Y-96324500D01*
X143722864Y-96324500D01*
X142277129Y-96324500D01*
X142277123Y-96324501D01*
X142217516Y-96330908D01*
X142082671Y-96381202D01*
X142082664Y-96381206D01*
X141967455Y-96467452D01*
X141903459Y-96552939D01*
X141847525Y-96594809D01*
X141777833Y-96599793D01*
X141731308Y-96578946D01*
X141615833Y-96495049D01*
X141451043Y-96411084D01*
X141451040Y-96411083D01*
X141275147Y-96353933D01*
X141092473Y-96325000D01*
X140907527Y-96325000D01*
X140724852Y-96353933D01*
X140548959Y-96411083D01*
X140548956Y-96411084D01*
X140384167Y-96495049D01*
X140363568Y-96510015D01*
X140953553Y-97100000D01*
X140947339Y-97100000D01*
X140845606Y-97127259D01*
X140754394Y-97179920D01*
X140679920Y-97254394D01*
X140627259Y-97345606D01*
X140600000Y-97447339D01*
X140600000Y-97453552D01*
X139988310Y-96841862D01*
X139987844Y-96841491D01*
X139984541Y-96840536D01*
X139972885Y-96829573D01*
X139957773Y-96817532D01*
X139954109Y-96813338D01*
X139896621Y-96734213D01*
X139765787Y-96603379D01*
X139616096Y-96494622D01*
X139562778Y-96467455D01*
X139451235Y-96410620D01*
X139451232Y-96410619D01*
X139275265Y-96353445D01*
X139132972Y-96330908D01*
X139092514Y-96324500D01*
X138907486Y-96324500D01*
X138867028Y-96330908D01*
X138724734Y-96353445D01*
X138548767Y-96410619D01*
X138548764Y-96410620D01*
X138383903Y-96494622D01*
X138328846Y-96534624D01*
X138234213Y-96603379D01*
X138234211Y-96603381D01*
X138234210Y-96603381D01*
X138103381Y-96734210D01*
X138100314Y-96738432D01*
X138044981Y-96781094D01*
X137975367Y-96787069D01*
X137913574Y-96754459D01*
X137899686Y-96738432D01*
X137896621Y-96734213D01*
X137765787Y-96603379D01*
X137616096Y-96494622D01*
X137562778Y-96467455D01*
X137451235Y-96410620D01*
X137451232Y-96410619D01*
X137275265Y-96353445D01*
X137132972Y-96330908D01*
X137092514Y-96324500D01*
X136907486Y-96324500D01*
X136867028Y-96330908D01*
X136724734Y-96353445D01*
X136548767Y-96410619D01*
X136548764Y-96410620D01*
X136383903Y-96494622D01*
X136328846Y-96534624D01*
X136234213Y-96603379D01*
X136234211Y-96603381D01*
X136234210Y-96603381D01*
X136103381Y-96734210D01*
X136103381Y-96734211D01*
X136103379Y-96734213D01*
X136072199Y-96777129D01*
X135994622Y-96883903D01*
X135910620Y-97048764D01*
X135910619Y-97048767D01*
X135853445Y-97224734D01*
X135842021Y-97296865D01*
X135824500Y-97407486D01*
X135045499Y-97407486D01*
X135045499Y-96817128D01*
X135039091Y-96757517D01*
X135037950Y-96754459D01*
X134988797Y-96622671D01*
X134988793Y-96622664D01*
X134902547Y-96507455D01*
X134902544Y-96507452D01*
X134787335Y-96421206D01*
X134787328Y-96421202D01*
X134652482Y-96370908D01*
X134652483Y-96370908D01*
X134592883Y-96364501D01*
X134592881Y-96364500D01*
X134592873Y-96364500D01*
X134592864Y-96364500D01*
X133147129Y-96364500D01*
X133147123Y-96364501D01*
X133087516Y-96370908D01*
X132952671Y-96421202D01*
X132952664Y-96421206D01*
X132837455Y-96507452D01*
X132773758Y-96592539D01*
X132717823Y-96634410D01*
X132648132Y-96639393D01*
X132601607Y-96618545D01*
X132486099Y-96534624D01*
X132486098Y-96534623D01*
X132486096Y-96534622D01*
X132407592Y-96494622D01*
X132321235Y-96450620D01*
X132321232Y-96450619D01*
X132145265Y-96393445D01*
X132002972Y-96370908D01*
X131962514Y-96364500D01*
X131777486Y-96364500D01*
X131737028Y-96370908D01*
X131594734Y-96393445D01*
X131418767Y-96450619D01*
X131418764Y-96450620D01*
X131253903Y-96534622D01*
X131192897Y-96578946D01*
X131104213Y-96643379D01*
X131104211Y-96643381D01*
X131104210Y-96643381D01*
X130973381Y-96774210D01*
X130973379Y-96774213D01*
X130971261Y-96777129D01*
X130970314Y-96778432D01*
X130914981Y-96821094D01*
X130845367Y-96827069D01*
X130783574Y-96794459D01*
X130769686Y-96778432D01*
X130768744Y-96777135D01*
X130766621Y-96774213D01*
X130635787Y-96643379D01*
X130486096Y-96534622D01*
X130321235Y-96450620D01*
X130321232Y-96450619D01*
X130145265Y-96393445D01*
X130002972Y-96370908D01*
X129962514Y-96364500D01*
X129777486Y-96364500D01*
X129737028Y-96370908D01*
X129594734Y-96393445D01*
X129418767Y-96450619D01*
X129418764Y-96450620D01*
X129253903Y-96534622D01*
X129192897Y-96578946D01*
X129104213Y-96643379D01*
X129104211Y-96643381D01*
X129104210Y-96643381D01*
X128973381Y-96774210D01*
X128973379Y-96774213D01*
X128971261Y-96777129D01*
X128970314Y-96778432D01*
X128914981Y-96821094D01*
X128845367Y-96827069D01*
X128783574Y-96794459D01*
X128769686Y-96778432D01*
X128768744Y-96777135D01*
X128766621Y-96774213D01*
X128635787Y-96643379D01*
X128486096Y-96534622D01*
X128321235Y-96450620D01*
X128321232Y-96450619D01*
X128145265Y-96393445D01*
X128002972Y-96370908D01*
X127962514Y-96364500D01*
X127777486Y-96364500D01*
X127737028Y-96370908D01*
X127594734Y-96393445D01*
X127418767Y-96450619D01*
X127418764Y-96450620D01*
X127253903Y-96534622D01*
X127192897Y-96578946D01*
X127104213Y-96643379D01*
X127104211Y-96643381D01*
X127104210Y-96643381D01*
X126973381Y-96774210D01*
X126973379Y-96774213D01*
X126971261Y-96777129D01*
X126970314Y-96778432D01*
X126914981Y-96821094D01*
X126845367Y-96827069D01*
X126783574Y-96794459D01*
X126769686Y-96778432D01*
X126768744Y-96777135D01*
X126766621Y-96774213D01*
X126635787Y-96643379D01*
X126486096Y-96534622D01*
X126321235Y-96450620D01*
X126321232Y-96450619D01*
X126145265Y-96393445D01*
X126002972Y-96370908D01*
X125962514Y-96364500D01*
X125777486Y-96364500D01*
X125737028Y-96370908D01*
X125594734Y-96393445D01*
X125418767Y-96450619D01*
X125418764Y-96450620D01*
X125253903Y-96534622D01*
X125192897Y-96578946D01*
X125104213Y-96643379D01*
X125104211Y-96643381D01*
X125104210Y-96643381D01*
X124973381Y-96774210D01*
X124973379Y-96774213D01*
X124971261Y-96777129D01*
X124970314Y-96778432D01*
X124914981Y-96821094D01*
X124845367Y-96827069D01*
X124783574Y-96794459D01*
X124769686Y-96778432D01*
X124768744Y-96777135D01*
X124766621Y-96774213D01*
X124635787Y-96643379D01*
X124486096Y-96534622D01*
X124321235Y-96450620D01*
X124321232Y-96450619D01*
X124145265Y-96393445D01*
X124002972Y-96370908D01*
X123962514Y-96364500D01*
X123777486Y-96364500D01*
X123737028Y-96370908D01*
X123594734Y-96393445D01*
X123418767Y-96450619D01*
X123418764Y-96450620D01*
X123253903Y-96534622D01*
X123192897Y-96578946D01*
X123104213Y-96643379D01*
X123104211Y-96643381D01*
X123104210Y-96643381D01*
X122973381Y-96774210D01*
X122973379Y-96774213D01*
X122971261Y-96777129D01*
X122970314Y-96778432D01*
X122914981Y-96821094D01*
X122845367Y-96827069D01*
X122783574Y-96794459D01*
X122769686Y-96778432D01*
X122768744Y-96777135D01*
X122766621Y-96774213D01*
X122635787Y-96643379D01*
X122486096Y-96534622D01*
X122321235Y-96450620D01*
X122321232Y-96450619D01*
X122145265Y-96393445D01*
X122002972Y-96370908D01*
X121962514Y-96364500D01*
X121777486Y-96364500D01*
X121737028Y-96370908D01*
X121594734Y-96393445D01*
X121418767Y-96450619D01*
X121418764Y-96450620D01*
X121253903Y-96534622D01*
X121192897Y-96578946D01*
X121104213Y-96643379D01*
X121104211Y-96643381D01*
X121104210Y-96643381D01*
X120973381Y-96774210D01*
X120973379Y-96774213D01*
X120971261Y-96777129D01*
X120970314Y-96778432D01*
X120914981Y-96821094D01*
X120845367Y-96827069D01*
X120783574Y-96794459D01*
X120769686Y-96778432D01*
X120768744Y-96777135D01*
X120766621Y-96774213D01*
X120635787Y-96643379D01*
X120486096Y-96534622D01*
X120321235Y-96450620D01*
X120321232Y-96450619D01*
X120145265Y-96393445D01*
X120002972Y-96370908D01*
X119962514Y-96364500D01*
X119777486Y-96364500D01*
X119737028Y-96370908D01*
X119594734Y-96393445D01*
X119418767Y-96450619D01*
X119418764Y-96450620D01*
X119253903Y-96534622D01*
X119192897Y-96578946D01*
X119104213Y-96643379D01*
X119104211Y-96643381D01*
X119104210Y-96643381D01*
X118973381Y-96774210D01*
X118973379Y-96774213D01*
X118971261Y-96777129D01*
X118970314Y-96778432D01*
X118914981Y-96821094D01*
X118845367Y-96827069D01*
X118783574Y-96794459D01*
X118769686Y-96778432D01*
X118768744Y-96777135D01*
X118766621Y-96774213D01*
X118635787Y-96643379D01*
X118486096Y-96534622D01*
X118321235Y-96450620D01*
X118321232Y-96450619D01*
X118145265Y-96393445D01*
X118002972Y-96370908D01*
X117962514Y-96364500D01*
X117777486Y-96364500D01*
X117737028Y-96370908D01*
X117594734Y-96393445D01*
X117418767Y-96450619D01*
X117418764Y-96450620D01*
X117253903Y-96534622D01*
X117192897Y-96578946D01*
X117104213Y-96643379D01*
X117104211Y-96643381D01*
X117104210Y-96643381D01*
X116973381Y-96774210D01*
X116973379Y-96774213D01*
X116971261Y-96777129D01*
X116970314Y-96778432D01*
X116914981Y-96821094D01*
X116845367Y-96827069D01*
X116783574Y-96794459D01*
X116769686Y-96778432D01*
X116768744Y-96777135D01*
X116766621Y-96774213D01*
X116635787Y-96643379D01*
X116486096Y-96534622D01*
X116321235Y-96450620D01*
X116321232Y-96450619D01*
X116145265Y-96393445D01*
X116002972Y-96370908D01*
X115962514Y-96364500D01*
X115777486Y-96364500D01*
X115737028Y-96370908D01*
X115594734Y-96393445D01*
X115418767Y-96450619D01*
X115418764Y-96450620D01*
X115253903Y-96534622D01*
X115192897Y-96578946D01*
X115104213Y-96643379D01*
X115104211Y-96643381D01*
X115104210Y-96643381D01*
X114973381Y-96774210D01*
X114973379Y-96774213D01*
X114971261Y-96777129D01*
X114970314Y-96778432D01*
X114914981Y-96821094D01*
X114845367Y-96827069D01*
X114783574Y-96794459D01*
X114769686Y-96778432D01*
X114768744Y-96777135D01*
X114766621Y-96774213D01*
X114635787Y-96643379D01*
X114486096Y-96534622D01*
X114321235Y-96450620D01*
X114321232Y-96450619D01*
X114145265Y-96393445D01*
X114002972Y-96370908D01*
X113962514Y-96364500D01*
X113777486Y-96364500D01*
X113737028Y-96370908D01*
X113594734Y-96393445D01*
X113418767Y-96450619D01*
X113418764Y-96450620D01*
X113253903Y-96534622D01*
X113192897Y-96578946D01*
X113104213Y-96643379D01*
X113104211Y-96643381D01*
X113104210Y-96643381D01*
X112973381Y-96774210D01*
X112973381Y-96774211D01*
X112973379Y-96774213D01*
X112942199Y-96817129D01*
X112864622Y-96923903D01*
X112780620Y-97088764D01*
X112780619Y-97088767D01*
X112723445Y-97264734D01*
X112723445Y-97264736D01*
X112694500Y-97447486D01*
X100540500Y-97447486D01*
X100540500Y-93986371D01*
X104812995Y-93986371D01*
X105615869Y-93986371D01*
X105598652Y-93996311D01*
X105542797Y-94052166D01*
X105503301Y-94120575D01*
X105482857Y-94196875D01*
X105482857Y-94275867D01*
X105503301Y-94352167D01*
X105542797Y-94420576D01*
X105598652Y-94476431D01*
X105615869Y-94486371D01*
X104812995Y-94486371D01*
X104821287Y-94528061D01*
X104821287Y-94528063D01*
X104896664Y-94710042D01*
X104896671Y-94710055D01*
X105006105Y-94873833D01*
X105006108Y-94873837D01*
X105145390Y-95013119D01*
X105145394Y-95013122D01*
X105309172Y-95122556D01*
X105309185Y-95122563D01*
X105491163Y-95197940D01*
X105491175Y-95197943D01*
X105684361Y-95236370D01*
X105684365Y-95236371D01*
X105832857Y-95236371D01*
X105832857Y-94536371D01*
X106332857Y-94536371D01*
X106332857Y-95236371D01*
X106481349Y-95236371D01*
X106481352Y-95236370D01*
X106674538Y-95197943D01*
X106674550Y-95197940D01*
X106856528Y-95122563D01*
X106856541Y-95122556D01*
X107020319Y-95013122D01*
X107020323Y-95013119D01*
X107159605Y-94873837D01*
X107159608Y-94873833D01*
X107269042Y-94710055D01*
X107269049Y-94710042D01*
X107344426Y-94528063D01*
X107344426Y-94528061D01*
X107352719Y-94486371D01*
X106549845Y-94486371D01*
X106567062Y-94476431D01*
X106622917Y-94420576D01*
X106662413Y-94352167D01*
X106682857Y-94275867D01*
X106682857Y-94196875D01*
X106662413Y-94120575D01*
X106622917Y-94052166D01*
X106567062Y-93996311D01*
X106549845Y-93986371D01*
X107352719Y-93986371D01*
X108742995Y-93986371D01*
X109545869Y-93986371D01*
X109528652Y-93996311D01*
X109472797Y-94052166D01*
X109433301Y-94120575D01*
X109412857Y-94196875D01*
X109412857Y-94275867D01*
X109433301Y-94352167D01*
X109472797Y-94420576D01*
X109528652Y-94476431D01*
X109545869Y-94486371D01*
X108742995Y-94486371D01*
X108751287Y-94528061D01*
X108751287Y-94528063D01*
X108826664Y-94710042D01*
X108826671Y-94710055D01*
X108936105Y-94873833D01*
X108936108Y-94873837D01*
X109075390Y-95013119D01*
X109075394Y-95013122D01*
X109239172Y-95122556D01*
X109239185Y-95122563D01*
X109421163Y-95197940D01*
X109421175Y-95197943D01*
X109614361Y-95236370D01*
X109614365Y-95236371D01*
X110012857Y-95236371D01*
X110012857Y-94536371D01*
X110512857Y-94536371D01*
X110512857Y-95236371D01*
X110911349Y-95236371D01*
X110911352Y-95236370D01*
X111104538Y-95197943D01*
X111104550Y-95197940D01*
X111286528Y-95122563D01*
X111286541Y-95122556D01*
X111450319Y-95013122D01*
X111450323Y-95013119D01*
X111589605Y-94873837D01*
X111589608Y-94873833D01*
X111699042Y-94710055D01*
X111699049Y-94710042D01*
X111774426Y-94528063D01*
X111774426Y-94528061D01*
X111782719Y-94486371D01*
X110979845Y-94486371D01*
X110997062Y-94476431D01*
X111052917Y-94420576D01*
X111092413Y-94352167D01*
X111112857Y-94275867D01*
X111112857Y-94196875D01*
X111092413Y-94120575D01*
X111052917Y-94052166D01*
X110997062Y-93996311D01*
X110979845Y-93986371D01*
X111782719Y-93986371D01*
X111774426Y-93944680D01*
X111774426Y-93944678D01*
X111699049Y-93762699D01*
X111699042Y-93762686D01*
X111589608Y-93598908D01*
X111589605Y-93598904D01*
X111499507Y-93508806D01*
X111383601Y-93421153D01*
X113624500Y-93421153D01*
X113624500Y-93578846D01*
X113655261Y-93733489D01*
X113655264Y-93733501D01*
X113715602Y-93879172D01*
X113715609Y-93879185D01*
X113803210Y-94010288D01*
X113803213Y-94010292D01*
X113914707Y-94121786D01*
X113914711Y-94121789D01*
X114045814Y-94209390D01*
X114045827Y-94209397D01*
X114191498Y-94269735D01*
X114191503Y-94269737D01*
X114346153Y-94300499D01*
X114346156Y-94300500D01*
X114346158Y-94300500D01*
X114503844Y-94300500D01*
X114503845Y-94300499D01*
X114658497Y-94269737D01*
X114804179Y-94209394D01*
X114935289Y-94121789D01*
X115046789Y-94010289D01*
X115134394Y-93879179D01*
X115194737Y-93733497D01*
X115225500Y-93578842D01*
X115225500Y-93421158D01*
X115225500Y-93421155D01*
X115225499Y-93421153D01*
X115210709Y-93346798D01*
X115194737Y-93266503D01*
X115186961Y-93247729D01*
X115134397Y-93120827D01*
X115134390Y-93120814D01*
X115046789Y-92989711D01*
X115046786Y-92989707D01*
X114935292Y-92878213D01*
X114935288Y-92878210D01*
X114804185Y-92790609D01*
X114804172Y-92790602D01*
X114658501Y-92730264D01*
X114658489Y-92730261D01*
X114503845Y-92699500D01*
X114503842Y-92699500D01*
X114346158Y-92699500D01*
X114346155Y-92699500D01*
X114191510Y-92730261D01*
X114191498Y-92730264D01*
X114045827Y-92790602D01*
X114045814Y-92790609D01*
X113914711Y-92878210D01*
X113914707Y-92878213D01*
X113803213Y-92989707D01*
X113803210Y-92989711D01*
X113715609Y-93120814D01*
X113715602Y-93120827D01*
X113655264Y-93266498D01*
X113655261Y-93266510D01*
X113624500Y-93421153D01*
X111383601Y-93421153D01*
X111311288Y-93366467D01*
X111292559Y-93341192D01*
X111272387Y-93317054D01*
X111271920Y-93313337D01*
X111269691Y-93310329D01*
X111267600Y-93278940D01*
X111263680Y-93247729D01*
X111265295Y-93244351D01*
X111265047Y-93240614D01*
X111280262Y-93213070D01*
X111293835Y-93184701D01*
X111297019Y-93182733D01*
X111298831Y-93179455D01*
X111326521Y-93164510D01*
X111353278Y-93147982D01*
X111360155Y-93146357D01*
X111360317Y-93146270D01*
X111360473Y-93146281D01*
X111361892Y-93145947D01*
X111379606Y-93142423D01*
X111411354Y-93136108D01*
X111557036Y-93075765D01*
X111688146Y-92988160D01*
X111799646Y-92876660D01*
X111887251Y-92745550D01*
X111947594Y-92599868D01*
X111978357Y-92445213D01*
X111978357Y-92287529D01*
X111978357Y-92287526D01*
X111978356Y-92287524D01*
X111947595Y-92132881D01*
X111947594Y-92132874D01*
X111940644Y-92116096D01*
X111887254Y-91987198D01*
X111887247Y-91987185D01*
X111799646Y-91856082D01*
X111799643Y-91856078D01*
X111688149Y-91744584D01*
X111688145Y-91744581D01*
X111557042Y-91656980D01*
X111557029Y-91656973D01*
X111411358Y-91596635D01*
X111411346Y-91596632D01*
X111256702Y-91565871D01*
X111256699Y-91565871D01*
X111099015Y-91565871D01*
X111099012Y-91565871D01*
X110944367Y-91596632D01*
X110944355Y-91596635D01*
X110798684Y-91656973D01*
X110798671Y-91656980D01*
X110667568Y-91744581D01*
X110667564Y-91744584D01*
X110556070Y-91856078D01*
X110556067Y-91856082D01*
X110468466Y-91987185D01*
X110468459Y-91987198D01*
X110408121Y-92132869D01*
X110408118Y-92132881D01*
X110377357Y-92287524D01*
X110377357Y-92337629D01*
X110357672Y-92404668D01*
X110304868Y-92450423D01*
X110235710Y-92460367D01*
X110172154Y-92431342D01*
X110165676Y-92425310D01*
X110086224Y-92345858D01*
X110086222Y-92345856D01*
X110020607Y-92307973D01*
X109954993Y-92270090D01*
X109881807Y-92250480D01*
X109808623Y-92230871D01*
X109657091Y-92230871D01*
X109510720Y-92270090D01*
X109379492Y-92345856D01*
X109379489Y-92345858D01*
X109272344Y-92453003D01*
X109272342Y-92453006D01*
X109196576Y-92584234D01*
X109191446Y-92603381D01*
X109157357Y-92730605D01*
X109157357Y-92882137D01*
X109176966Y-92955321D01*
X109196576Y-93028507D01*
X109216423Y-93062882D01*
X109272342Y-93159736D01*
X109272344Y-93159738D01*
X109277289Y-93166182D01*
X109274469Y-93168345D01*
X109300159Y-93215391D01*
X109295175Y-93285083D01*
X109253303Y-93341016D01*
X109244236Y-93346787D01*
X109244244Y-93346798D01*
X109075393Y-93459619D01*
X108936108Y-93598904D01*
X108936105Y-93598908D01*
X108826671Y-93762686D01*
X108826664Y-93762699D01*
X108751287Y-93944678D01*
X108751287Y-93944680D01*
X108742995Y-93986371D01*
X107352719Y-93986371D01*
X107344426Y-93944680D01*
X107344426Y-93944678D01*
X107269049Y-93762699D01*
X107269042Y-93762686D01*
X107159608Y-93598908D01*
X107159605Y-93598904D01*
X107020323Y-93459622D01*
X107020319Y-93459619D01*
X106856541Y-93350185D01*
X106856528Y-93350178D01*
X106674550Y-93274801D01*
X106674538Y-93274798D01*
X106481352Y-93236371D01*
X106332857Y-93236371D01*
X106332857Y-93936371D01*
X105832857Y-93936371D01*
X105832857Y-93236371D01*
X105684361Y-93236371D01*
X105491175Y-93274798D01*
X105491163Y-93274801D01*
X105309185Y-93350178D01*
X105309172Y-93350185D01*
X105145394Y-93459619D01*
X105145390Y-93459622D01*
X105006108Y-93598904D01*
X105006105Y-93598908D01*
X104896671Y-93762686D01*
X104896664Y-93762699D01*
X104821287Y-93944678D01*
X104821287Y-93944680D01*
X104812995Y-93986371D01*
X100540500Y-93986371D01*
X100540500Y-91033059D01*
X118163476Y-91033059D01*
X118163476Y-91190752D01*
X118194237Y-91345395D01*
X118194240Y-91345407D01*
X118254578Y-91491078D01*
X118254585Y-91491091D01*
X118342186Y-91622194D01*
X118342189Y-91622198D01*
X118453683Y-91733692D01*
X118453687Y-91733695D01*
X118584790Y-91821296D01*
X118584803Y-91821303D01*
X118730474Y-91881641D01*
X118730479Y-91881643D01*
X118885129Y-91912405D01*
X118885132Y-91912406D01*
X118885134Y-91912406D01*
X119042820Y-91912406D01*
X119042821Y-91912405D01*
X119197473Y-91881643D01*
X119343155Y-91821300D01*
X119474265Y-91733695D01*
X119585765Y-91622195D01*
X119673370Y-91491085D01*
X119707998Y-91407486D01*
X148824500Y-91407486D01*
X148824500Y-91592514D01*
X148838972Y-91683889D01*
X148853445Y-91775265D01*
X148910619Y-91951232D01*
X148910620Y-91951235D01*
X148994622Y-92116096D01*
X149103379Y-92265787D01*
X149234213Y-92396621D01*
X149238421Y-92399678D01*
X149238432Y-92399686D01*
X149281094Y-92455019D01*
X149287069Y-92524633D01*
X149254459Y-92586426D01*
X149238432Y-92600314D01*
X149234210Y-92603381D01*
X149103381Y-92734210D01*
X149103381Y-92734211D01*
X149103379Y-92734213D01*
X149095138Y-92745556D01*
X148994622Y-92883903D01*
X148910620Y-93048764D01*
X148910619Y-93048767D01*
X148853445Y-93224734D01*
X148824500Y-93407486D01*
X148824500Y-93592513D01*
X148853445Y-93775265D01*
X148910619Y-93951232D01*
X148910620Y-93951235D01*
X148962048Y-94052166D01*
X148994622Y-94116096D01*
X149103379Y-94265787D01*
X149234213Y-94396621D01*
X149238421Y-94399678D01*
X149238432Y-94399686D01*
X149281094Y-94455019D01*
X149287069Y-94524633D01*
X149254459Y-94586426D01*
X149238432Y-94600314D01*
X149234210Y-94603381D01*
X149103381Y-94734210D01*
X149103381Y-94734211D01*
X149103379Y-94734213D01*
X149056672Y-94798499D01*
X148994622Y-94883903D01*
X148910620Y-95048764D01*
X148910619Y-95048767D01*
X148853445Y-95224734D01*
X148824500Y-95407486D01*
X148824500Y-95592513D01*
X148853445Y-95775265D01*
X148910619Y-95951232D01*
X148910620Y-95951235D01*
X148994624Y-96116099D01*
X149078545Y-96231607D01*
X149102025Y-96297413D01*
X149086200Y-96365467D01*
X149052539Y-96403758D01*
X148967452Y-96467455D01*
X148881206Y-96582664D01*
X148881202Y-96582671D01*
X148830908Y-96717517D01*
X148824813Y-96774213D01*
X148824501Y-96777123D01*
X148824500Y-96777135D01*
X148824500Y-98222870D01*
X148824501Y-98222876D01*
X148830908Y-98282483D01*
X148881202Y-98417328D01*
X148881206Y-98417335D01*
X148967452Y-98532544D01*
X148967455Y-98532547D01*
X149082664Y-98618793D01*
X149082671Y-98618797D01*
X149217517Y-98669091D01*
X149217516Y-98669091D01*
X149224444Y-98669835D01*
X149277127Y-98675500D01*
X150722872Y-98675499D01*
X150782483Y-98669091D01*
X150917331Y-98618796D01*
X151032546Y-98532546D01*
X151118796Y-98417331D01*
X151169091Y-98282483D01*
X151175500Y-98222873D01*
X151175499Y-96777128D01*
X151169091Y-96717517D01*
X151141439Y-96643379D01*
X151118797Y-96582671D01*
X151118793Y-96582664D01*
X151032547Y-96467455D01*
X150947460Y-96403758D01*
X150905590Y-96347824D01*
X150900606Y-96278132D01*
X150921454Y-96231607D01*
X151005378Y-96116096D01*
X151089379Y-95951235D01*
X151146555Y-95775264D01*
X151175500Y-95592514D01*
X151175500Y-95407486D01*
X151146555Y-95224736D01*
X151089379Y-95048765D01*
X151089379Y-95048764D01*
X151005377Y-94883903D01*
X150998061Y-94873833D01*
X150896621Y-94734213D01*
X150765787Y-94603379D01*
X150761576Y-94600319D01*
X150718909Y-94544994D01*
X150712926Y-94475381D01*
X150745529Y-94413585D01*
X150761570Y-94399684D01*
X150765787Y-94396621D01*
X150896621Y-94265787D01*
X151005378Y-94116096D01*
X151089379Y-93951235D01*
X151146555Y-93775264D01*
X151175500Y-93592514D01*
X151175500Y-93407486D01*
X151146555Y-93224736D01*
X151098152Y-93075765D01*
X151089380Y-93048767D01*
X151089379Y-93048764D01*
X151005377Y-92883903D01*
X151001243Y-92878213D01*
X150896621Y-92734213D01*
X150765787Y-92603379D01*
X150761576Y-92600319D01*
X150718909Y-92544994D01*
X150712926Y-92475381D01*
X150745529Y-92413585D01*
X150761570Y-92399684D01*
X150765787Y-92396621D01*
X150896621Y-92265787D01*
X151005378Y-92116096D01*
X151089379Y-91951235D01*
X151146555Y-91775264D01*
X151175500Y-91592514D01*
X151175500Y-91407486D01*
X151146555Y-91224736D01*
X151089379Y-91048765D01*
X151089379Y-91048764D01*
X151005377Y-90883903D01*
X150896621Y-90734213D01*
X150765787Y-90603379D01*
X150616096Y-90494622D01*
X150607258Y-90490119D01*
X150451235Y-90410620D01*
X150451232Y-90410619D01*
X150275265Y-90353445D01*
X150183889Y-90338972D01*
X150092514Y-90324500D01*
X149907486Y-90324500D01*
X149846569Y-90334148D01*
X149724734Y-90353445D01*
X149548767Y-90410619D01*
X149548764Y-90410620D01*
X149383903Y-90494622D01*
X149298499Y-90556672D01*
X149234213Y-90603379D01*
X149234211Y-90603381D01*
X149234210Y-90603381D01*
X149103381Y-90734210D01*
X149103381Y-90734211D01*
X149103379Y-90734213D01*
X149056672Y-90798499D01*
X148994622Y-90883903D01*
X148910620Y-91048764D01*
X148910619Y-91048767D01*
X148853445Y-91224734D01*
X148853445Y-91224736D01*
X148824500Y-91407486D01*
X119707998Y-91407486D01*
X119733713Y-91345403D01*
X119764476Y-91190748D01*
X119764476Y-91033064D01*
X119764476Y-91033061D01*
X119764475Y-91033059D01*
X119734806Y-90883904D01*
X119733713Y-90878409D01*
X119673985Y-90734211D01*
X119673373Y-90732733D01*
X119673366Y-90732720D01*
X119585765Y-90601617D01*
X119585762Y-90601613D01*
X119474268Y-90490119D01*
X119474264Y-90490116D01*
X119343161Y-90402515D01*
X119343148Y-90402508D01*
X119197477Y-90342170D01*
X119197465Y-90342167D01*
X119042821Y-90311406D01*
X119042818Y-90311406D01*
X118885134Y-90311406D01*
X118885131Y-90311406D01*
X118730486Y-90342167D01*
X118730474Y-90342170D01*
X118584803Y-90402508D01*
X118584790Y-90402515D01*
X118453687Y-90490116D01*
X118453683Y-90490119D01*
X118342189Y-90601613D01*
X118342186Y-90601617D01*
X118254585Y-90732720D01*
X118254578Y-90732733D01*
X118194240Y-90878404D01*
X118194237Y-90878416D01*
X118163476Y-91033059D01*
X100540500Y-91033059D01*
X100540500Y-88551153D01*
X141449500Y-88551153D01*
X141449500Y-88708846D01*
X141480261Y-88863489D01*
X141480264Y-88863501D01*
X141540602Y-89009172D01*
X141540609Y-89009185D01*
X141628210Y-89140288D01*
X141628213Y-89140292D01*
X141739707Y-89251786D01*
X141739711Y-89251789D01*
X141870814Y-89339390D01*
X141870827Y-89339397D01*
X142016498Y-89399735D01*
X142016503Y-89399737D01*
X142104974Y-89417335D01*
X142171153Y-89430499D01*
X142171156Y-89430500D01*
X142171158Y-89430500D01*
X142328844Y-89430500D01*
X142328845Y-89430499D01*
X142483497Y-89399737D01*
X142629179Y-89339394D01*
X142760289Y-89251789D01*
X142871789Y-89140289D01*
X142959394Y-89009179D01*
X143019737Y-88863497D01*
X143050500Y-88708842D01*
X143050500Y-88551158D01*
X143050500Y-88551155D01*
X143050499Y-88551153D01*
X143019738Y-88396510D01*
X143019737Y-88396503D01*
X143019735Y-88396498D01*
X142959397Y-88250827D01*
X142959390Y-88250814D01*
X142871789Y-88119711D01*
X142871786Y-88119707D01*
X142760292Y-88008213D01*
X142760288Y-88008210D01*
X142629185Y-87920609D01*
X142629172Y-87920602D01*
X142483501Y-87860264D01*
X142483489Y-87860261D01*
X142328845Y-87829500D01*
X142328842Y-87829500D01*
X142171158Y-87829500D01*
X142171155Y-87829500D01*
X142016510Y-87860261D01*
X142016498Y-87860264D01*
X141870827Y-87920602D01*
X141870814Y-87920609D01*
X141739711Y-88008210D01*
X141739707Y-88008213D01*
X141628213Y-88119707D01*
X141628210Y-88119711D01*
X141540609Y-88250814D01*
X141540602Y-88250827D01*
X141480264Y-88396498D01*
X141480261Y-88396510D01*
X141449500Y-88551153D01*
X100540500Y-88551153D01*
X100540500Y-85346371D01*
X104812995Y-85346371D01*
X105615869Y-85346371D01*
X105598652Y-85356311D01*
X105542797Y-85412166D01*
X105503301Y-85480575D01*
X105482857Y-85556875D01*
X105482857Y-85635867D01*
X105503301Y-85712167D01*
X105542797Y-85780576D01*
X105598652Y-85836431D01*
X105615869Y-85846371D01*
X104812995Y-85846371D01*
X104821287Y-85888062D01*
X104896664Y-86070042D01*
X104896671Y-86070055D01*
X105006105Y-86233833D01*
X105006108Y-86233837D01*
X105145390Y-86373119D01*
X105145394Y-86373122D01*
X105309172Y-86482556D01*
X105309185Y-86482563D01*
X105491163Y-86557940D01*
X105491175Y-86557943D01*
X105684361Y-86596370D01*
X105684365Y-86596371D01*
X105832857Y-86596371D01*
X105832857Y-85896371D01*
X106332857Y-85896371D01*
X106332857Y-86596371D01*
X106481349Y-86596371D01*
X106481352Y-86596370D01*
X106674538Y-86557943D01*
X106674550Y-86557940D01*
X106856528Y-86482563D01*
X106856541Y-86482556D01*
X107020319Y-86373122D01*
X107020323Y-86373119D01*
X107159605Y-86233837D01*
X107159608Y-86233833D01*
X107269042Y-86070055D01*
X107269049Y-86070042D01*
X107344426Y-85888062D01*
X107352719Y-85846371D01*
X106549845Y-85846371D01*
X106567062Y-85836431D01*
X106622917Y-85780576D01*
X106662413Y-85712167D01*
X106682857Y-85635867D01*
X106682857Y-85556875D01*
X106662413Y-85480575D01*
X106622917Y-85412166D01*
X106567062Y-85356311D01*
X106549845Y-85346371D01*
X107352719Y-85346371D01*
X108742995Y-85346371D01*
X109545869Y-85346371D01*
X109528652Y-85356311D01*
X109472797Y-85412166D01*
X109433301Y-85480575D01*
X109412857Y-85556875D01*
X109412857Y-85635867D01*
X109433301Y-85712167D01*
X109472797Y-85780576D01*
X109528652Y-85836431D01*
X109545869Y-85846371D01*
X108742995Y-85846371D01*
X108751287Y-85888062D01*
X108826664Y-86070042D01*
X108826671Y-86070055D01*
X108936105Y-86233833D01*
X108936108Y-86233837D01*
X109075390Y-86373119D01*
X109075394Y-86373122D01*
X109244244Y-86485945D01*
X109243287Y-86487376D01*
X109287282Y-86530582D01*
X109302752Y-86598717D01*
X109278929Y-86664400D01*
X109277166Y-86666465D01*
X109277289Y-86666560D01*
X109272342Y-86673006D01*
X109196576Y-86804234D01*
X109185765Y-86844582D01*
X109157357Y-86950605D01*
X109157357Y-87102137D01*
X109163886Y-87126503D01*
X109196576Y-87248507D01*
X109234459Y-87314121D01*
X109272342Y-87379736D01*
X109379492Y-87486886D01*
X109510722Y-87562652D01*
X109657091Y-87601871D01*
X109657093Y-87601871D01*
X109808621Y-87601871D01*
X109808623Y-87601871D01*
X109954992Y-87562652D01*
X110086222Y-87486886D01*
X110165676Y-87407432D01*
X110226999Y-87373947D01*
X110296691Y-87378931D01*
X110352624Y-87420803D01*
X110377041Y-87486267D01*
X110377357Y-87495113D01*
X110377357Y-87545217D01*
X110408118Y-87699860D01*
X110408121Y-87699872D01*
X110468459Y-87845543D01*
X110468466Y-87845556D01*
X110556067Y-87976659D01*
X110556070Y-87976663D01*
X110667564Y-88088157D01*
X110667568Y-88088160D01*
X110798671Y-88175761D01*
X110798684Y-88175768D01*
X110944355Y-88236106D01*
X110944360Y-88236108D01*
X111099010Y-88266870D01*
X111099013Y-88266871D01*
X111099015Y-88266871D01*
X111256701Y-88266871D01*
X111256702Y-88266870D01*
X111411354Y-88236108D01*
X111557036Y-88175765D01*
X111688146Y-88088160D01*
X111799646Y-87976660D01*
X111887251Y-87845550D01*
X111947594Y-87699868D01*
X111978357Y-87545213D01*
X111978357Y-87387529D01*
X111978357Y-87387526D01*
X111978356Y-87387524D01*
X111969743Y-87344224D01*
X111947594Y-87232874D01*
X111899225Y-87116099D01*
X111887254Y-87087198D01*
X111887247Y-87087185D01*
X111799646Y-86956082D01*
X111799643Y-86956078D01*
X111688149Y-86844584D01*
X111688145Y-86844581D01*
X111557042Y-86756980D01*
X111557029Y-86756973D01*
X111411358Y-86696635D01*
X111411349Y-86696632D01*
X111361890Y-86686794D01*
X111299979Y-86654408D01*
X111265406Y-86593692D01*
X111269147Y-86523922D01*
X111310014Y-86467251D01*
X111317193Y-86462075D01*
X111450315Y-86373125D01*
X111450323Y-86373119D01*
X111589605Y-86233837D01*
X111589608Y-86233833D01*
X111699042Y-86070055D01*
X111699049Y-86070042D01*
X111774426Y-85888062D01*
X111782719Y-85846371D01*
X110979845Y-85846371D01*
X110997062Y-85836431D01*
X111052917Y-85780576D01*
X111092413Y-85712167D01*
X111112857Y-85635867D01*
X111112857Y-85556875D01*
X111092413Y-85480575D01*
X111052917Y-85412166D01*
X110997062Y-85356311D01*
X110979845Y-85346371D01*
X111782719Y-85346371D01*
X111774426Y-85304680D01*
X111774426Y-85304678D01*
X111699049Y-85122699D01*
X111699042Y-85122686D01*
X111589608Y-84958908D01*
X111589605Y-84958904D01*
X111450323Y-84819622D01*
X111450319Y-84819619D01*
X111286541Y-84710185D01*
X111286528Y-84710178D01*
X111104550Y-84634801D01*
X111104538Y-84634798D01*
X110911352Y-84596371D01*
X110512857Y-84596371D01*
X110512857Y-85296371D01*
X110012857Y-85296371D01*
X110012857Y-84596371D01*
X109614361Y-84596371D01*
X109421175Y-84634798D01*
X109421163Y-84634801D01*
X109239185Y-84710178D01*
X109239172Y-84710185D01*
X109075394Y-84819619D01*
X109075390Y-84819622D01*
X108936108Y-84958904D01*
X108936105Y-84958908D01*
X108826671Y-85122686D01*
X108826664Y-85122699D01*
X108751287Y-85304678D01*
X108751287Y-85304680D01*
X108742995Y-85346371D01*
X107352719Y-85346371D01*
X107344426Y-85304680D01*
X107344426Y-85304678D01*
X107269049Y-85122699D01*
X107269042Y-85122686D01*
X107159608Y-84958908D01*
X107159605Y-84958904D01*
X107020323Y-84819622D01*
X107020319Y-84819619D01*
X106856541Y-84710185D01*
X106856528Y-84710178D01*
X106674550Y-84634801D01*
X106674538Y-84634798D01*
X106481352Y-84596371D01*
X106332857Y-84596371D01*
X106332857Y-85296371D01*
X105832857Y-85296371D01*
X105832857Y-84596371D01*
X105684361Y-84596371D01*
X105491175Y-84634798D01*
X105491163Y-84634801D01*
X105309185Y-84710178D01*
X105309172Y-84710185D01*
X105145394Y-84819619D01*
X105145390Y-84819622D01*
X105006108Y-84958904D01*
X105006105Y-84958908D01*
X104896671Y-85122686D01*
X104896664Y-85122699D01*
X104821287Y-85304678D01*
X104821287Y-85304680D01*
X104812995Y-85346371D01*
X100540500Y-85346371D01*
X100540500Y-82201153D01*
X123949500Y-82201153D01*
X123949500Y-82358846D01*
X123980261Y-82513489D01*
X123980264Y-82513501D01*
X124040602Y-82659172D01*
X124040609Y-82659185D01*
X124128210Y-82790288D01*
X124128213Y-82790292D01*
X124165240Y-82827319D01*
X124198725Y-82888642D01*
X124193741Y-82958334D01*
X124165240Y-83002681D01*
X124128213Y-83039707D01*
X124128210Y-83039711D01*
X124040609Y-83170814D01*
X124040602Y-83170827D01*
X123980264Y-83316498D01*
X123980261Y-83316510D01*
X123949500Y-83471153D01*
X123949500Y-83628846D01*
X123980261Y-83783489D01*
X123980264Y-83783501D01*
X124040602Y-83929172D01*
X124040609Y-83929185D01*
X124128210Y-84060288D01*
X124128213Y-84060292D01*
X124165240Y-84097319D01*
X124198725Y-84158642D01*
X124193741Y-84228334D01*
X124165240Y-84272681D01*
X124128213Y-84309707D01*
X124128210Y-84309711D01*
X124040609Y-84440814D01*
X124040602Y-84440827D01*
X123980264Y-84586498D01*
X123980261Y-84586510D01*
X123949500Y-84741153D01*
X123949500Y-84898846D01*
X123980261Y-85053489D01*
X123980264Y-85053501D01*
X124040602Y-85199172D01*
X124040609Y-85199185D01*
X124128210Y-85330288D01*
X124128213Y-85330292D01*
X124165240Y-85367319D01*
X124198725Y-85428642D01*
X124193741Y-85498334D01*
X124165240Y-85542681D01*
X124128213Y-85579707D01*
X124128210Y-85579711D01*
X124040609Y-85710814D01*
X124040602Y-85710827D01*
X123980264Y-85856498D01*
X123980261Y-85856510D01*
X123949500Y-86011153D01*
X123949500Y-86168846D01*
X123980261Y-86323489D01*
X123980264Y-86323501D01*
X124040602Y-86469172D01*
X124040609Y-86469185D01*
X124128210Y-86600288D01*
X124128213Y-86600292D01*
X124165240Y-86637319D01*
X124198725Y-86698642D01*
X124193741Y-86768334D01*
X124165240Y-86812681D01*
X124128213Y-86849707D01*
X124128210Y-86849711D01*
X124040609Y-86980814D01*
X124040602Y-86980827D01*
X123980264Y-87126498D01*
X123980261Y-87126510D01*
X123949500Y-87281153D01*
X123949500Y-87438846D01*
X123980261Y-87593489D01*
X123980264Y-87593501D01*
X124040602Y-87739172D01*
X124040609Y-87739185D01*
X124128210Y-87870288D01*
X124128213Y-87870292D01*
X124239707Y-87981786D01*
X124239711Y-87981789D01*
X124370814Y-88069390D01*
X124370827Y-88069397D01*
X124416126Y-88088160D01*
X124516503Y-88129737D01*
X124671153Y-88160499D01*
X124671156Y-88160500D01*
X124671158Y-88160500D01*
X124828844Y-88160500D01*
X124828845Y-88160499D01*
X124983497Y-88129737D01*
X125129179Y-88069394D01*
X125260289Y-87981789D01*
X125371789Y-87870289D01*
X125459394Y-87739179D01*
X125519737Y-87593497D01*
X125550500Y-87438842D01*
X125550500Y-87281158D01*
X125550500Y-87281155D01*
X125550499Y-87281153D01*
X125540895Y-87232869D01*
X125519737Y-87126503D01*
X125509644Y-87102136D01*
X125459397Y-86980827D01*
X125459390Y-86980814D01*
X125371789Y-86849711D01*
X125371786Y-86849707D01*
X125334760Y-86812681D01*
X125301275Y-86751358D01*
X125306259Y-86681666D01*
X125334760Y-86637319D01*
X125371786Y-86600292D01*
X125371789Y-86600289D01*
X125459394Y-86469179D01*
X125519737Y-86323497D01*
X125550500Y-86168842D01*
X125550500Y-86011158D01*
X125550500Y-86011155D01*
X125550499Y-86011153D01*
X125527667Y-85896371D01*
X125519737Y-85856503D01*
X125511423Y-85836431D01*
X125459397Y-85710827D01*
X125459390Y-85710814D01*
X125371789Y-85579711D01*
X125371786Y-85579707D01*
X125334760Y-85542681D01*
X125301275Y-85481358D01*
X125306259Y-85411666D01*
X125334760Y-85367319D01*
X125371786Y-85330292D01*
X125371789Y-85330289D01*
X125459394Y-85199179D01*
X125519737Y-85053497D01*
X125550500Y-84898842D01*
X125550500Y-84741158D01*
X125550500Y-84741155D01*
X125550499Y-84741153D01*
X125529344Y-84634801D01*
X125519737Y-84586503D01*
X125519735Y-84586498D01*
X125459397Y-84440827D01*
X125459390Y-84440814D01*
X125371789Y-84309711D01*
X125371786Y-84309707D01*
X125334760Y-84272681D01*
X125301275Y-84211358D01*
X125306259Y-84141666D01*
X125334760Y-84097319D01*
X125371786Y-84060292D01*
X125371789Y-84060289D01*
X125459394Y-83929179D01*
X125519737Y-83783497D01*
X125550500Y-83628842D01*
X125550500Y-83471158D01*
X125550500Y-83471155D01*
X125550499Y-83471153D01*
X125536283Y-83399686D01*
X125519737Y-83316503D01*
X125498731Y-83265789D01*
X125459397Y-83170827D01*
X125459390Y-83170814D01*
X125371789Y-83039711D01*
X125371786Y-83039707D01*
X125334760Y-83002681D01*
X125301275Y-82941358D01*
X125306259Y-82871666D01*
X125334760Y-82827319D01*
X125371786Y-82790292D01*
X125371789Y-82790289D01*
X125459394Y-82659179D01*
X125519737Y-82513497D01*
X125540824Y-82407486D01*
X148824500Y-82407486D01*
X148824500Y-82592513D01*
X148853445Y-82775265D01*
X148910619Y-82951232D01*
X148910620Y-82951235D01*
X148994622Y-83116096D01*
X149103379Y-83265787D01*
X149234213Y-83396621D01*
X149238421Y-83399678D01*
X149238432Y-83399686D01*
X149281094Y-83455019D01*
X149287069Y-83524633D01*
X149254459Y-83586426D01*
X149238432Y-83600314D01*
X149234210Y-83603381D01*
X149103381Y-83734210D01*
X149103381Y-83734211D01*
X149103379Y-83734213D01*
X149067578Y-83783489D01*
X148994622Y-83883903D01*
X148910620Y-84048764D01*
X148910619Y-84048767D01*
X148853445Y-84224734D01*
X148824500Y-84407486D01*
X148824500Y-84592513D01*
X148853445Y-84775265D01*
X148910619Y-84951232D01*
X148910620Y-84951235D01*
X148962722Y-85053489D01*
X148994622Y-85116096D01*
X149103379Y-85265787D01*
X149234213Y-85396621D01*
X149238421Y-85399678D01*
X149238432Y-85399686D01*
X149281094Y-85455019D01*
X149287069Y-85524633D01*
X149254459Y-85586426D01*
X149238432Y-85600314D01*
X149234210Y-85603381D01*
X149103381Y-85734210D01*
X149103381Y-85734211D01*
X149103379Y-85734213D01*
X149069694Y-85780576D01*
X148994622Y-85883903D01*
X148910620Y-86048764D01*
X148910619Y-86048767D01*
X148853445Y-86224734D01*
X148837804Y-86323489D01*
X148824500Y-86407486D01*
X148824500Y-86592514D01*
X148834303Y-86654408D01*
X148853445Y-86775265D01*
X148910619Y-86951232D01*
X148910620Y-86951235D01*
X148994624Y-87116099D01*
X149078545Y-87231607D01*
X149102025Y-87297413D01*
X149086200Y-87365467D01*
X149052539Y-87403758D01*
X148967452Y-87467455D01*
X148881206Y-87582664D01*
X148881202Y-87582671D01*
X148830908Y-87717517D01*
X148828579Y-87739185D01*
X148824501Y-87777123D01*
X148824500Y-87777135D01*
X148824500Y-89222870D01*
X148824501Y-89222876D01*
X148830908Y-89282483D01*
X148881202Y-89417328D01*
X148881206Y-89417335D01*
X148967452Y-89532544D01*
X148967455Y-89532547D01*
X149082664Y-89618793D01*
X149082671Y-89618797D01*
X149217517Y-89669091D01*
X149217516Y-89669091D01*
X149224444Y-89669835D01*
X149277127Y-89675500D01*
X150722872Y-89675499D01*
X150782483Y-89669091D01*
X150917331Y-89618796D01*
X151032546Y-89532546D01*
X151118796Y-89417331D01*
X151169091Y-89282483D01*
X151175500Y-89222873D01*
X151175499Y-87777128D01*
X151169091Y-87717517D01*
X151162508Y-87699868D01*
X151118797Y-87582671D01*
X151118793Y-87582664D01*
X151032547Y-87467455D01*
X150947460Y-87403758D01*
X150905590Y-87347824D01*
X150900606Y-87278132D01*
X150921454Y-87231607D01*
X151005378Y-87116096D01*
X151089379Y-86951235D01*
X151146555Y-86775264D01*
X151175500Y-86592514D01*
X151175500Y-86407486D01*
X151146555Y-86224736D01*
X151117967Y-86136750D01*
X151089380Y-86048767D01*
X151089379Y-86048764D01*
X151011730Y-85896371D01*
X151005378Y-85883904D01*
X150896621Y-85734213D01*
X150765787Y-85603379D01*
X150761576Y-85600319D01*
X150718909Y-85544994D01*
X150712926Y-85475381D01*
X150745529Y-85413585D01*
X150761570Y-85399684D01*
X150765787Y-85396621D01*
X150896621Y-85265787D01*
X151005378Y-85116096D01*
X151089379Y-84951235D01*
X151146555Y-84775264D01*
X151175500Y-84592514D01*
X151175500Y-84407486D01*
X151146555Y-84224736D01*
X151105155Y-84097319D01*
X151089380Y-84048767D01*
X151089379Y-84048764D01*
X151005377Y-83883903D01*
X150896621Y-83734213D01*
X150765787Y-83603379D01*
X150761576Y-83600319D01*
X150718909Y-83544994D01*
X150712926Y-83475381D01*
X150745529Y-83413585D01*
X150761570Y-83399684D01*
X150765787Y-83396621D01*
X150896621Y-83265787D01*
X151005378Y-83116096D01*
X151089379Y-82951235D01*
X151146555Y-82775264D01*
X151175500Y-82592514D01*
X151175500Y-82407486D01*
X151146555Y-82224736D01*
X151089379Y-82048765D01*
X151089379Y-82048764D01*
X151046577Y-81964763D01*
X151005378Y-81883904D01*
X150896621Y-81734213D01*
X150765787Y-81603379D01*
X150616096Y-81494622D01*
X150451235Y-81410620D01*
X150451232Y-81410619D01*
X150275265Y-81353445D01*
X150183889Y-81338972D01*
X150092514Y-81324500D01*
X149907486Y-81324500D01*
X149846569Y-81334148D01*
X149724734Y-81353445D01*
X149548767Y-81410619D01*
X149548764Y-81410620D01*
X149383903Y-81494622D01*
X149298499Y-81556672D01*
X149234213Y-81603379D01*
X149234211Y-81603381D01*
X149234210Y-81603381D01*
X149103381Y-81734210D01*
X149103381Y-81734211D01*
X149103379Y-81734213D01*
X149077569Y-81769738D01*
X148994622Y-81883903D01*
X148910620Y-82048764D01*
X148910619Y-82048767D01*
X148853445Y-82224734D01*
X148824500Y-82407486D01*
X125540824Y-82407486D01*
X125550500Y-82358842D01*
X125550500Y-82201158D01*
X125550500Y-82201155D01*
X125550499Y-82201153D01*
X125520187Y-82048765D01*
X125519737Y-82046503D01*
X125519735Y-82046498D01*
X125459397Y-81900827D01*
X125459390Y-81900814D01*
X125371789Y-81769711D01*
X125371786Y-81769707D01*
X125260292Y-81658213D01*
X125260288Y-81658210D01*
X125129185Y-81570609D01*
X125129172Y-81570602D01*
X124983501Y-81510264D01*
X124983489Y-81510261D01*
X124828845Y-81479500D01*
X124828842Y-81479500D01*
X124671158Y-81479500D01*
X124671155Y-81479500D01*
X124516510Y-81510261D01*
X124516498Y-81510264D01*
X124370827Y-81570602D01*
X124370814Y-81570609D01*
X124239711Y-81658210D01*
X124239707Y-81658213D01*
X124128213Y-81769707D01*
X124128210Y-81769711D01*
X124040609Y-81900814D01*
X124040602Y-81900827D01*
X123980264Y-82046498D01*
X123980261Y-82046510D01*
X123949500Y-82201153D01*
X100540500Y-82201153D01*
X100540500Y-80921153D01*
X111699500Y-80921153D01*
X111699500Y-81078846D01*
X111730261Y-81233489D01*
X111730264Y-81233501D01*
X111790602Y-81379172D01*
X111790609Y-81379185D01*
X111878210Y-81510288D01*
X111878213Y-81510292D01*
X111989707Y-81621786D01*
X111989711Y-81621789D01*
X112120814Y-81709390D01*
X112120827Y-81709397D01*
X112266440Y-81769711D01*
X112266503Y-81769737D01*
X112421153Y-81800499D01*
X112421156Y-81800500D01*
X112421158Y-81800500D01*
X112578844Y-81800500D01*
X112578845Y-81800499D01*
X112733497Y-81769737D01*
X112879179Y-81709394D01*
X113010289Y-81621789D01*
X113121789Y-81510289D01*
X113209394Y-81379179D01*
X113269737Y-81233497D01*
X113300500Y-81078842D01*
X113300500Y-80921158D01*
X113300500Y-80921155D01*
X113300499Y-80921153D01*
X113269738Y-80766510D01*
X113269737Y-80766503D01*
X113232043Y-80675500D01*
X113209397Y-80620827D01*
X113209390Y-80620814D01*
X113121789Y-80489711D01*
X113121786Y-80489707D01*
X113010292Y-80378213D01*
X113010288Y-80378210D01*
X112879185Y-80290609D01*
X112879172Y-80290602D01*
X112733501Y-80230264D01*
X112733489Y-80230261D01*
X112578845Y-80199500D01*
X112578842Y-80199500D01*
X112421158Y-80199500D01*
X112421155Y-80199500D01*
X112266510Y-80230261D01*
X112266498Y-80230264D01*
X112120827Y-80290602D01*
X112120814Y-80290609D01*
X111989711Y-80378210D01*
X111989707Y-80378213D01*
X111878213Y-80489707D01*
X111878210Y-80489711D01*
X111790609Y-80620814D01*
X111790602Y-80620827D01*
X111730264Y-80766498D01*
X111730261Y-80766510D01*
X111699500Y-80921153D01*
X100540500Y-80921153D01*
X100540500Y-77121153D01*
X123949500Y-77121153D01*
X123949500Y-77278846D01*
X123980261Y-77433489D01*
X123980264Y-77433501D01*
X124040602Y-77579172D01*
X124040609Y-77579185D01*
X124128210Y-77710288D01*
X124128213Y-77710292D01*
X124165240Y-77747319D01*
X124198725Y-77808642D01*
X124193741Y-77878334D01*
X124165240Y-77922681D01*
X124128213Y-77959707D01*
X124128210Y-77959711D01*
X124040609Y-78090814D01*
X124040602Y-78090827D01*
X123980264Y-78236498D01*
X123980261Y-78236510D01*
X123949500Y-78391153D01*
X123949500Y-78548846D01*
X123980261Y-78703489D01*
X123980264Y-78703501D01*
X124040602Y-78849172D01*
X124040609Y-78849185D01*
X124128210Y-78980288D01*
X124128213Y-78980292D01*
X124239707Y-79091786D01*
X124239711Y-79091789D01*
X124370814Y-79179390D01*
X124370827Y-79179397D01*
X124516498Y-79239735D01*
X124516503Y-79239737D01*
X124671153Y-79270499D01*
X124671156Y-79270500D01*
X124671158Y-79270500D01*
X124828844Y-79270500D01*
X124828845Y-79270499D01*
X124983497Y-79239737D01*
X125129179Y-79179394D01*
X125260289Y-79091789D01*
X125371789Y-78980289D01*
X125459394Y-78849179D01*
X125519737Y-78703497D01*
X125550500Y-78548842D01*
X125550500Y-78391158D01*
X125550500Y-78391155D01*
X125550499Y-78391153D01*
X125531853Y-78297413D01*
X125519737Y-78236503D01*
X125517709Y-78231606D01*
X125459397Y-78090827D01*
X125459390Y-78090814D01*
X125371789Y-77959711D01*
X125371786Y-77959707D01*
X125334760Y-77922681D01*
X125301275Y-77861358D01*
X125306259Y-77791666D01*
X125334760Y-77747319D01*
X125371786Y-77710292D01*
X125371789Y-77710289D01*
X125459394Y-77579179D01*
X125519737Y-77433497D01*
X125550500Y-77278842D01*
X125550500Y-77121158D01*
X125550500Y-77121155D01*
X125550499Y-77121153D01*
X125519738Y-76966510D01*
X125519737Y-76966503D01*
X125485524Y-76883904D01*
X125459397Y-76820827D01*
X125459390Y-76820814D01*
X125371789Y-76689711D01*
X125371786Y-76689707D01*
X125260292Y-76578213D01*
X125260288Y-76578210D01*
X125129185Y-76490609D01*
X125129172Y-76490602D01*
X124983501Y-76430264D01*
X124983489Y-76430261D01*
X124828845Y-76399500D01*
X124828842Y-76399500D01*
X124671158Y-76399500D01*
X124671155Y-76399500D01*
X124516510Y-76430261D01*
X124516498Y-76430264D01*
X124370827Y-76490602D01*
X124370814Y-76490609D01*
X124239711Y-76578210D01*
X124239707Y-76578213D01*
X124128213Y-76689707D01*
X124128210Y-76689711D01*
X124040609Y-76820814D01*
X124040602Y-76820827D01*
X123980264Y-76966498D01*
X123980261Y-76966510D01*
X123949500Y-77121153D01*
X100540500Y-77121153D01*
X100540500Y-74958653D01*
X116199500Y-74958653D01*
X116199500Y-75116346D01*
X116230261Y-75270989D01*
X116230264Y-75271001D01*
X116290602Y-75416672D01*
X116290609Y-75416685D01*
X116378210Y-75547788D01*
X116378213Y-75547792D01*
X116489707Y-75659286D01*
X116489711Y-75659289D01*
X116620814Y-75746890D01*
X116620827Y-75746897D01*
X116766498Y-75807235D01*
X116766503Y-75807237D01*
X116921153Y-75837999D01*
X116921156Y-75838000D01*
X116921158Y-75838000D01*
X117078844Y-75838000D01*
X117078845Y-75837999D01*
X117233497Y-75807237D01*
X117379179Y-75746894D01*
X117510289Y-75659289D01*
X117621789Y-75547789D01*
X117709394Y-75416679D01*
X117769737Y-75270997D01*
X117800500Y-75116342D01*
X117800500Y-74958658D01*
X117800500Y-74958655D01*
X117781822Y-74864758D01*
X117781822Y-74864757D01*
X117778221Y-74846653D01*
X118699500Y-74846653D01*
X118699500Y-75004346D01*
X118730261Y-75158989D01*
X118730264Y-75159001D01*
X118790602Y-75304672D01*
X118790609Y-75304685D01*
X118878210Y-75435788D01*
X118878213Y-75435792D01*
X118989707Y-75547286D01*
X118989711Y-75547289D01*
X119120814Y-75634890D01*
X119120827Y-75634897D01*
X119266498Y-75695235D01*
X119266503Y-75695237D01*
X119421153Y-75725999D01*
X119421156Y-75726000D01*
X119421158Y-75726000D01*
X119578844Y-75726000D01*
X119578845Y-75725999D01*
X119733497Y-75695237D01*
X119879179Y-75634894D01*
X120010289Y-75547289D01*
X120121789Y-75435789D01*
X120209394Y-75304679D01*
X120269737Y-75158997D01*
X120300500Y-75004342D01*
X120300500Y-74846658D01*
X120300500Y-74846655D01*
X120300499Y-74846653D01*
X121699500Y-74846653D01*
X121699500Y-75004346D01*
X121730261Y-75158989D01*
X121730264Y-75159001D01*
X121790602Y-75304672D01*
X121790609Y-75304685D01*
X121878210Y-75435788D01*
X121878213Y-75435792D01*
X121989707Y-75547286D01*
X121989711Y-75547289D01*
X122120814Y-75634890D01*
X122120827Y-75634897D01*
X122266498Y-75695235D01*
X122266503Y-75695237D01*
X122421153Y-75725999D01*
X122421156Y-75726000D01*
X122421158Y-75726000D01*
X122578844Y-75726000D01*
X122578845Y-75725999D01*
X122733497Y-75695237D01*
X122879179Y-75634894D01*
X123010289Y-75547289D01*
X123121789Y-75435789D01*
X123209394Y-75304679D01*
X123269737Y-75158997D01*
X123300500Y-75004342D01*
X123300500Y-74846658D01*
X123300500Y-74846655D01*
X123300499Y-74846653D01*
X123292014Y-74803998D01*
X123269737Y-74692003D01*
X123231762Y-74600322D01*
X123223822Y-74581153D01*
X123949500Y-74581153D01*
X123949500Y-74738846D01*
X123980261Y-74893489D01*
X123980264Y-74893501D01*
X124040602Y-75039172D01*
X124040609Y-75039185D01*
X124128210Y-75170288D01*
X124128213Y-75170292D01*
X124239707Y-75281786D01*
X124239711Y-75281789D01*
X124370814Y-75369390D01*
X124370827Y-75369397D01*
X124484961Y-75416672D01*
X124516503Y-75429737D01*
X124671153Y-75460499D01*
X124671156Y-75460500D01*
X124671158Y-75460500D01*
X124828844Y-75460500D01*
X124828845Y-75460499D01*
X124983497Y-75429737D01*
X125129179Y-75369394D01*
X125260289Y-75281789D01*
X125371789Y-75170289D01*
X125459394Y-75039179D01*
X125519737Y-74893497D01*
X125550500Y-74738842D01*
X125550500Y-74581158D01*
X125550500Y-74581155D01*
X125550499Y-74581153D01*
X125539256Y-74524633D01*
X125519737Y-74426503D01*
X125515267Y-74415711D01*
X125459397Y-74280827D01*
X125459390Y-74280814D01*
X125371789Y-74149711D01*
X125371786Y-74149707D01*
X125260292Y-74038213D01*
X125260288Y-74038210D01*
X125129185Y-73950609D01*
X125129172Y-73950602D01*
X124983501Y-73890264D01*
X124983489Y-73890261D01*
X124828845Y-73859500D01*
X124828842Y-73859500D01*
X124671158Y-73859500D01*
X124671155Y-73859500D01*
X124516510Y-73890261D01*
X124516498Y-73890264D01*
X124370827Y-73950602D01*
X124370814Y-73950609D01*
X124239711Y-74038210D01*
X124239707Y-74038213D01*
X124128213Y-74149707D01*
X124128210Y-74149711D01*
X124040609Y-74280814D01*
X124040602Y-74280827D01*
X123980264Y-74426498D01*
X123980261Y-74426510D01*
X123949500Y-74581153D01*
X123223822Y-74581153D01*
X123209397Y-74546327D01*
X123209390Y-74546314D01*
X123121789Y-74415211D01*
X123121786Y-74415207D01*
X123010292Y-74303713D01*
X123010288Y-74303710D01*
X122879185Y-74216109D01*
X122879172Y-74216102D01*
X122733501Y-74155764D01*
X122733489Y-74155761D01*
X122578845Y-74125000D01*
X122578842Y-74125000D01*
X122421158Y-74125000D01*
X122421155Y-74125000D01*
X122266510Y-74155761D01*
X122266498Y-74155764D01*
X122120827Y-74216102D01*
X122120814Y-74216109D01*
X121989711Y-74303710D01*
X121989707Y-74303713D01*
X121878213Y-74415207D01*
X121878210Y-74415211D01*
X121790609Y-74546314D01*
X121790602Y-74546327D01*
X121730264Y-74691998D01*
X121730261Y-74692010D01*
X121699500Y-74846653D01*
X120300499Y-74846653D01*
X120292014Y-74803998D01*
X120269737Y-74692003D01*
X120231762Y-74600322D01*
X120209397Y-74546327D01*
X120209390Y-74546314D01*
X120121789Y-74415211D01*
X120121786Y-74415207D01*
X120010292Y-74303713D01*
X120010288Y-74303710D01*
X119879185Y-74216109D01*
X119879172Y-74216102D01*
X119733501Y-74155764D01*
X119733489Y-74155761D01*
X119578845Y-74125000D01*
X119578842Y-74125000D01*
X119421158Y-74125000D01*
X119421155Y-74125000D01*
X119266510Y-74155761D01*
X119266498Y-74155764D01*
X119120827Y-74216102D01*
X119120814Y-74216109D01*
X118989711Y-74303710D01*
X118989707Y-74303713D01*
X118878213Y-74415207D01*
X118878210Y-74415211D01*
X118790609Y-74546314D01*
X118790602Y-74546327D01*
X118730264Y-74691998D01*
X118730261Y-74692010D01*
X118699500Y-74846653D01*
X117778221Y-74846653D01*
X117769738Y-74804010D01*
X117769737Y-74804003D01*
X117769735Y-74803998D01*
X117709397Y-74658327D01*
X117709390Y-74658314D01*
X117621789Y-74527211D01*
X117621786Y-74527207D01*
X117510292Y-74415713D01*
X117510288Y-74415710D01*
X117379185Y-74328109D01*
X117379172Y-74328102D01*
X117233501Y-74267764D01*
X117233489Y-74267761D01*
X117078845Y-74237000D01*
X117078842Y-74237000D01*
X116921158Y-74237000D01*
X116921155Y-74237000D01*
X116766510Y-74267761D01*
X116766498Y-74267764D01*
X116620827Y-74328102D01*
X116620814Y-74328109D01*
X116489711Y-74415710D01*
X116489707Y-74415713D01*
X116378213Y-74527207D01*
X116378210Y-74527211D01*
X116290609Y-74658314D01*
X116290602Y-74658327D01*
X116230264Y-74803998D01*
X116230261Y-74804010D01*
X116199500Y-74958653D01*
X100540500Y-74958653D01*
X100540500Y-73421153D01*
X113199500Y-73421153D01*
X113199500Y-73578846D01*
X113230261Y-73733489D01*
X113230264Y-73733501D01*
X113290602Y-73879172D01*
X113290609Y-73879185D01*
X113378210Y-74010288D01*
X113378213Y-74010292D01*
X113489707Y-74121786D01*
X113489711Y-74121789D01*
X113620814Y-74209390D01*
X113620827Y-74209397D01*
X113761732Y-74267761D01*
X113766503Y-74269737D01*
X113921153Y-74300499D01*
X113921156Y-74300500D01*
X113921158Y-74300500D01*
X114078844Y-74300500D01*
X114078845Y-74300499D01*
X114233497Y-74269737D01*
X114346166Y-74223067D01*
X114379172Y-74209397D01*
X114379172Y-74209396D01*
X114379179Y-74209394D01*
X114510289Y-74121789D01*
X114621789Y-74010289D01*
X114709394Y-73879179D01*
X114769737Y-73733497D01*
X114800500Y-73578842D01*
X114800500Y-73421158D01*
X114800500Y-73421155D01*
X114797781Y-73407486D01*
X148824500Y-73407486D01*
X148824500Y-73592513D01*
X148853445Y-73775265D01*
X148910619Y-73951232D01*
X148910620Y-73951235D01*
X148994622Y-74116096D01*
X149103379Y-74265787D01*
X149234213Y-74396621D01*
X149238421Y-74399678D01*
X149238432Y-74399686D01*
X149281094Y-74455019D01*
X149287069Y-74524633D01*
X149254459Y-74586426D01*
X149238432Y-74600314D01*
X149234210Y-74603381D01*
X149103381Y-74734210D01*
X149103381Y-74734211D01*
X149103379Y-74734213D01*
X149100013Y-74738846D01*
X148994622Y-74883903D01*
X148910620Y-75048764D01*
X148910619Y-75048767D01*
X148853445Y-75224734D01*
X148824500Y-75407486D01*
X148824500Y-75592513D01*
X148853445Y-75775265D01*
X148910619Y-75951232D01*
X148910620Y-75951235D01*
X148994622Y-76116096D01*
X149103379Y-76265787D01*
X149234213Y-76396621D01*
X149238176Y-76399500D01*
X149238432Y-76399686D01*
X149281094Y-76455019D01*
X149287069Y-76524633D01*
X149254459Y-76586426D01*
X149238432Y-76600314D01*
X149234210Y-76603381D01*
X149103381Y-76734210D01*
X149103381Y-76734211D01*
X149103379Y-76734213D01*
X149056672Y-76798499D01*
X148994622Y-76883903D01*
X148910620Y-77048764D01*
X148910619Y-77048767D01*
X148853445Y-77224734D01*
X148824500Y-77407486D01*
X148824500Y-77592513D01*
X148853445Y-77775265D01*
X148910619Y-77951232D01*
X148910620Y-77951235D01*
X148994624Y-78116099D01*
X149078545Y-78231607D01*
X149102025Y-78297413D01*
X149086200Y-78365467D01*
X149052539Y-78403758D01*
X148967452Y-78467455D01*
X148881206Y-78582664D01*
X148881202Y-78582671D01*
X148830908Y-78717517D01*
X148824501Y-78777116D01*
X148824501Y-78777123D01*
X148824500Y-78777135D01*
X148824500Y-80222870D01*
X148824501Y-80222876D01*
X148830908Y-80282483D01*
X148881202Y-80417328D01*
X148881206Y-80417335D01*
X148967452Y-80532544D01*
X148967455Y-80532547D01*
X149082664Y-80618793D01*
X149082671Y-80618797D01*
X149217517Y-80669091D01*
X149217516Y-80669091D01*
X149224444Y-80669835D01*
X149277127Y-80675500D01*
X150722872Y-80675499D01*
X150782483Y-80669091D01*
X150917331Y-80618796D01*
X151032546Y-80532546D01*
X151118796Y-80417331D01*
X151169091Y-80282483D01*
X151175500Y-80222873D01*
X151175499Y-78777128D01*
X151169091Y-78717517D01*
X151163863Y-78703501D01*
X151118797Y-78582671D01*
X151118793Y-78582664D01*
X151032547Y-78467455D01*
X150947460Y-78403758D01*
X150905590Y-78347824D01*
X150900606Y-78278132D01*
X150921454Y-78231607D01*
X151005378Y-78116096D01*
X151089379Y-77951235D01*
X151146555Y-77775264D01*
X151175500Y-77592514D01*
X151175500Y-77407486D01*
X151146555Y-77224736D01*
X151089379Y-77048765D01*
X151089379Y-77048764D01*
X151005377Y-76883903D01*
X150896621Y-76734213D01*
X150765787Y-76603379D01*
X150761576Y-76600319D01*
X150718909Y-76544994D01*
X150712926Y-76475381D01*
X150745529Y-76413585D01*
X150761570Y-76399684D01*
X150765787Y-76396621D01*
X150896621Y-76265787D01*
X151005378Y-76116096D01*
X151089379Y-75951235D01*
X151146555Y-75775264D01*
X151175500Y-75592514D01*
X151175500Y-75407486D01*
X151146555Y-75224736D01*
X151089379Y-75048765D01*
X151089379Y-75048764D01*
X151043465Y-74958653D01*
X151005378Y-74883904D01*
X150896621Y-74734213D01*
X150765787Y-74603379D01*
X150761576Y-74600319D01*
X150718909Y-74544994D01*
X150712926Y-74475381D01*
X150745529Y-74413585D01*
X150761570Y-74399684D01*
X150765787Y-74396621D01*
X150896621Y-74265787D01*
X151005378Y-74116096D01*
X151089379Y-73951235D01*
X151146555Y-73775264D01*
X151175500Y-73592514D01*
X151175500Y-73407486D01*
X151146555Y-73224736D01*
X151089379Y-73048765D01*
X151089379Y-73048764D01*
X151005377Y-72883903D01*
X151001243Y-72878213D01*
X150896621Y-72734213D01*
X150765787Y-72603379D01*
X150616096Y-72494622D01*
X150451235Y-72410620D01*
X150451232Y-72410619D01*
X150275265Y-72353445D01*
X150183889Y-72338972D01*
X150092514Y-72324500D01*
X149907486Y-72324500D01*
X149846569Y-72334148D01*
X149724734Y-72353445D01*
X149548767Y-72410619D01*
X149548764Y-72410620D01*
X149383903Y-72494622D01*
X149298499Y-72556672D01*
X149234213Y-72603379D01*
X149234211Y-72603381D01*
X149234210Y-72603381D01*
X149103381Y-72734210D01*
X149103381Y-72734211D01*
X149103379Y-72734213D01*
X149062410Y-72790602D01*
X148994622Y-72883903D01*
X148910620Y-73048764D01*
X148910619Y-73048767D01*
X148853445Y-73224734D01*
X148824500Y-73407486D01*
X114797781Y-73407486D01*
X114769738Y-73266508D01*
X114769737Y-73266507D01*
X114769737Y-73266503D01*
X114752436Y-73224734D01*
X114709397Y-73120827D01*
X114709390Y-73120814D01*
X114621789Y-72989711D01*
X114621786Y-72989707D01*
X114510292Y-72878213D01*
X114510288Y-72878210D01*
X114379185Y-72790609D01*
X114379172Y-72790602D01*
X114233501Y-72730264D01*
X114233489Y-72730261D01*
X114078845Y-72699500D01*
X114078842Y-72699500D01*
X113921158Y-72699500D01*
X113921155Y-72699500D01*
X113766510Y-72730261D01*
X113766498Y-72730264D01*
X113620827Y-72790602D01*
X113620814Y-72790609D01*
X113489711Y-72878210D01*
X113489707Y-72878213D01*
X113378213Y-72989707D01*
X113378210Y-72989711D01*
X113290609Y-73120814D01*
X113290602Y-73120827D01*
X113230264Y-73266498D01*
X113230261Y-73266510D01*
X113199500Y-73421153D01*
X100540500Y-73421153D01*
X100540500Y-66144500D01*
X100560185Y-66077461D01*
X100612989Y-66031706D01*
X100664500Y-66020500D01*
X159365500Y-66020500D01*
X159432539Y-66040185D01*
G37*
%TD.AperFunction*%
%TD*%
M02*
